<?xml version="1.0" encoding="iso-8859-1"?>
<!-- Generator: Adobe Illustrator 16.0.0, SVG Export Plug-In . SVG Version: 6.00 Build 0)  -->
<!DOCTYPE svg PUBLIC "-//W3C//DTD SVG 1.1//EN" "http://www.w3.org/Graphics/SVG/1.1/DTD/svg11.dtd">
<svg version="1.1" id="Capa_1" xmlns="http://www.w3.org/2000/svg" xmlns:xlink="http://www.w3.org/1999/xlink" x="0px" y="0px"
	 width="950px" height="950px" viewBox="0 0 950 950" style="enable-background:new 0 0 950 950;" xml:space="preserve">
<g>
	<g>
		<path d="M938.3,729.049c6.4,0,11.7-5.199,11.7-11.699v-507.1c0-6.4-5.2-11.7-11.7-11.7H487v-41.5c0-14.7-12-26.7-26.7-26.7h-79.2
			c-14.699,0-26.699,12-26.699,26.7v41.5h-62.7c-6.4,0-15.4,3.6-20.1,8L8.5,455.85C3.8,460.25,0,469.049,0,475.549v241.9
			c0,6.4,5.2,11.701,11.7,11.701h71.5c0-32.201,12.5-62.5,35.3-85.201c22.8-22.699,53-35.299,85.2-35.299
			c32.2,0,62.5,12.5,85.2,35.299c22.8,22.801,35.3,53,35.3,85.201H376h285.7c0-32.201,12.5-62.5,35.3-85.201
			c22.8-22.699,53-35.299,85.2-35.299s62.5,12.5,85.2,35.299c22.8,22.801,35.3,53,35.3,85.201L938.3,729.049L938.3,729.049z
			 M384.4,160.55H457v38.1h-72.6V160.55z M347.9,453.35c0,6.399-5.2,11.699-11.7,11.699H95.6c-6.4,0-7.9-3.699-3.3-8.199L283,269.45
			c4.6-4.5,13.5-8.2,20-8.2h33.3c6.4,0,11.7,5.2,11.7,11.7L347.9,453.35L347.9,453.35z M790.5,457.75c0,7.5-6.1,13.5-13.5,13.5
			h-82.3v82.299c0,7.5-6.101,13.5-13.5,13.5h-61.3c-7.5,0-13.5-6.1-13.5-13.5V471.25H524.1c-7.5,0-13.5-6.1-13.5-13.5v-61.3
			c0-7.5,6.101-13.5,13.5-13.5H606.4v-82.3c0-7.5,6.1-13.5,13.5-13.5h61.3c7.5,0,13.5,6.1,13.5,13.5v82.3H777
			c7.5,0,13.5,6.1,13.5,13.5V457.75L790.5,457.75z"/>
		<circle cx="203.7" cy="729.05" r="90.601"/>
		<circle cx="782.2" cy="729.05" r="90.601"/>
	</g>
</g>
<g>
</g>
<g>
</g>
<g>
</g>
<g>
</g>
<g>
</g>
<g>
</g>
<g>
</g>
<g>
</g>
<g>
</g>
<g>
</g>
<g>
</g>
<g>
</g>
<g>
</g>
<g>
</g>
<g>
</g>
</svg>
