<?xml version="1.0" encoding="iso-8859-1"?>
<!-- Generator: Adobe Illustrator 16.0.0, SVG Export Plug-In . SVG Version: 6.00 Build 0)  -->
<!DOCTYPE svg PUBLIC "-//W3C//DTD SVG 1.1//EN" "http://www.w3.org/Graphics/SVG/1.1/DTD/svg11.dtd">
<svg version="1.1" id="Capa_1" xmlns="http://www.w3.org/2000/svg" xmlns:xlink="http://www.w3.org/1999/xlink" x="0px" y="0px"
	 width="935.487px" height="935.487px" viewBox="0 0 935.487 935.487" style="enable-background:new 0 0 935.487 935.487;"
	 xml:space="preserve">
<g>
	<g>
		<path d="M610.243,809.188c14.2,0,27.801-6.5,38.4-18.399c10.4-11.601,16.3-26.801,16.3-41.7v-40.2H555.544v40.2
			c0,14.899,5.899,30.1,16.3,41.7C582.443,802.588,596.144,809.188,610.243,809.188z M571.844,722.487h76.8v29.4
			c0,21.2-17.2,41.4-38.4,41.4c-21.199,0-38.399-20.2-38.399-41.4V722.487L571.844,722.487z"/>
		<path d="M163.844,935.487h607.8c5.5,0,10-4.5,10-10V649.788c0-86.301-69.9-156.2-156.2-156.2h-26.8c4,9,6.8,18.1,9.1,27.399h18.9
			c70.3,0,127.5,56.101,127.5,125.101v104.6c0,8.3-6.7,15-15,15s-15-6.7-15-15v-104.7c0-52.399-43.7-95.1-97.5-95.1h-12.8
			c1.1,6,2.2,11.9,3.399,17.7c0.5,2.3,1,4.5,1.5,6.7c1.2,5.1,2.601,10.1,4.2,15c0.7,2.1,1,4.3,0.9,6.5c0.2,4.699-1.2,9.1-4.2,12.5
			c-3.3,3.8-8.1,5.899-13.3,5.899c-2.2,0-4.5-0.399-6.7-1.1l-13.2-4.3l-12.7-4.101l0,0c-1-0.399-1.699,0.101-2.199,0.5
			c-6.2,5.101-12.601,9.9-19.101,14.5c-20.5,14.7-41.399,26.9-57,35.4c-0.7,0.4-0.8,1-0.8,1.5v101.8c0,13.1-10.3,23.8-23,23.8h-7.2
			c-12.7,0-23-10.7-23-23.8v-102.3c-14.899-8.101-36.899-20.8-58.399-36.2c-6.5-4.6-12.9-9.5-19.101-14.5c-0.5-0.4-1.3-0.8-2.2-0.5
			l0,0l-12.699,4.1l-13.2,4.301c-2.3,0.699-4.5,1.1-6.7,1.1c-6,0-11.3-2.7-14.6-7.5c-2-3-4.9-9.4-1.301-18.5l1.101-2.8
			c0.3-1,0.6-2.101,0.899-3.101c0.301-1.1,0.601-2.1,0.9-3.199c0.3-1,0.5-2,0.8-2.9c0.7-2.7,1.3-5.5,1.9-8.3
			c1.2-5.8,2.3-11.8,3.5-18h-13.4c-53.8,0-97.5,42.7-97.5,95.1v104.601c0,8.3-6.7,15-15,15c-8.3,0-15-6.7-15-15V645.987
			c0-69,57.2-125.1,127.5-125.1h19.5c2.3-9.2,5.2-18.4,9.101-27.4h-27.5c-86.3,0-156.2,69.9-156.2,156.2v275.7
			C153.844,930.987,158.344,935.487,163.844,935.487z M540.544,701.388c0-4.1,3.399-7.5,7.5-7.5h124.5c4.1,0,7.5,3.4,7.5,7.5v47.7
			c0,40-32.601,75.1-69.7,75.1c-37.2,0-69.7-35.1-69.7-75.1v-47.7H540.544z"/>
		<path d="M319.443,336.787c3.3,7.9,6.2,16.7,11.8,23.4c3.9,4.7,10.101,8.101,16.301,9c0.399,1.3,0.699,2.5,0.899,3.8
			c3.8,24.4,16.4,50.301,32.7,68.9c8.5,9.7,23.6,19,22.5,33.8c-0.5,6.8-2.7,13.2-9.8,15.2c-4.601,1.3-9.4,0.9-14.101,1.8
			c-0.1,0.3-0.1,0.7-0.199,1c-0.2,1.101-0.4,2.3-0.601,3.4c-2.5,13.7-4.6,24.6,0.2,35.5c14.5,20.7,41.5,51,88.4,79.6
			c0.1,0,0.1,0.101,0.199,0.101c49.4-30.2,76.7-62,89-79.101c5.2-11.2,3.101-22.2,0.5-36.2c-0.199-1.1-0.399-2.3-0.6-3.399
			c-0.1-0.4-0.1-0.8-0.2-1.2c-7.1-1.6-15.1-2.5-19.899-8.2c-13.101-15.5,6.1-30.1,15.699-40.399c20-21.301,30.301-41.801,34.9-70.9
			c0.2-1.3,0.5-2.5,0.9-3.8c6.199-0.9,12.399-4.3,16.3-9c5.6-6.7,8.5-15.5,11.8-23.4c4.3-10.2,8.7-20.3,12.8-30.5
			c6.3-15.8,9.5-35.8-5.1-48.1c-4.101-3.5-9.5-5.101-14.8-5.101c-2.101,0-9.801-70.6-10.601-89.1c-0.1-2.101-3.399-2.8-3.8-0.5
			c-0.7,3.899-1.5,7.8-2.2,11.8c-1.5-5-3.2-10-5.3-14.8c-1.8-8.7-3.7-17.4-5.5-26c-0.7-3.3-1.4-6.7-2.1-10c-0.5-2.3-0.601-6-1.801-8
			c-0.699-1.2-3.5-1.8-4.199-2.101c-3.301-1.399-6.2-3.5-9-5.699c-9.4-7.601-14.801-19.301-15.301-31.301
			c-0.1-1.5-1.6-2.399-2.899-1.699c-6.101,3.6-12.101,7.1-18.2,10.699c-3.2-7.8-6.4-15.6-9.6-23.5
			c-0.601-1.399-2.101-1.899-3.301-0.899c-2.1,1.8-4.199,3.7-6.3,5.5c-2.7-8.101-5.399-16.3-8.2-24.4c-0.5-1.5-2.699-2-3.6-0.5
			c-1.9,3.3-3.7,6.7-5.6,10c-1.3-2.899-2.5-5.8-3.8-8.7c-0.5-1.199-2.301-1.199-3.101-0.399c-2.899,3.1-5.8,6.2-8.8,9.3
			c-3.8-17.1-7.6-34.2-11.4-51.3c-0.399-1.9-3.3-1.8-3.8,0c-6,22.8-18.8,42.8-36.6,58.1c-3.3-7.3-6.601-14.7-9.9-22
			c-0.6-1.3-2.8-1.3-3.399,0c-8.801,20.601-17.5,41.3-26.301,61.9c-4.8-3.601-9.699-7.101-14.5-10.7c-1-0.8-2.6,0-2.899,1.2
			c-5.9,22.3-11.8,44.7-17.7,67l-9.2-4.101c-1.2-0.5-3,0.101-2.899,1.7c1.399,21.9,1.8,41.4-2.2,63c-0.601,3.2-5.101,35.7-8.9,35.7
			c-5.3-0.101-10.7,1.6-14.8,5.1c-14.6,12.4-11.3,32.4-5.1,48.101C310.644,316.487,315.144,326.588,319.443,336.787z"/>
		<path d="M365.943,488.388c0.5-2.7-1.7-4.5-3.8-4.8c-0.3-0.101-0.6-0.101-0.9-0.101c-1.199,0-2.3,0.5-3.1,1.801
			c-1.7,2.699-3.3,5.5-4.7,8.3c-4.5,8.8-7.7,18-10.2,27.399c-2.6,9.801-4.5,19.9-6.3,30c0,0.101,0,0.301-0.1,0.4
			c-2.4,13.4-4.8,26.9-8.9,39.9l-1.3,3.3c-0.8,2.1-0.9,3.8-0.3,4.899c0.2,0.301,0.399,0.601,0.7,0.9c0.5,0.4,1.3,0.7,2.1,0.7
			c0.7,0,1.5-0.1,2.3-0.4l26.2-8.5c1.2-0.399,2.6-0.6,4.1-0.6c4,0,8.4,1.4,11.2,3.7c20.8,17,44.5,31.8,62.9,42.3
			c2,1.1,3.899,2.2,5.7,3.2c0-0.5,0.1-0.9,0.199-1.4c1-7.6,5.301-14.8,11.601-19.3c-46-29.4-72-59.7-85.3-78.5
			c-0.5-0.7-0.9-1.3-1.301-1.9c-2.6-5.5-4-10.899-4.5-16.3c-0.1-1.2-0.199-2.4-0.199-3.6c-0.301-8.7,1.399-17.3,3-26.101
			C365.344,491.788,365.644,490.088,365.943,488.388z"/>
		<path d="M609.443,594.888c-4.7-14-7.3-28.7-10-43.3c0-0.2-0.1-0.4-0.1-0.7c-1.8-10.1-3.7-20.2-6.3-30c-2.5-9.4-5.7-18.6-10.2-27.4
			c-1.4-2.8-3-5.6-4.7-8.3c-0.8-1.3-2-1.8-3.1-1.8c-0.301,0-0.601,0-0.9,0.1c-2.1,0.2-4.2,2.101-3.8,4.801
			c0.3,1.699,0.6,3.5,0.899,5.199c0.9,4.601,1.7,9.2,2.301,13.7c0.199,1.4,0.3,2.8,0.5,4.2c0.199,1.9,0.3,3.8,0.3,5.6
			c0.1,7.7-1.2,15.4-5.101,23.4c-13.699,19.4-41.699,51.6-91.399,82.4c-1.4,0.899-2.9,1.8-4.4,2.699c-0.6,0.4-1.2,0.7-1.8,1
			c-2.4,1.301-4.5,2.301-6.4,3.2c-0.399,0.2-0.699,0.3-1.1,0.5c-4.5,1.9-8.3,7.2-8.3,12.4v1.1v4.7v8.1v7.9v95
			c0,5.3,3.899,9.5,8.7,9.5h7.199c4.801,0,8.7-4.3,8.7-9.5v-101.8c0-5.3,2.3-10.8,7.8-13.7c3.5-1.9,7.301-4,11.4-6.4
			c18.4-10.5,42-25.3,62.9-42.3c2.8-2.3,7.199-3.7,11.199-3.7c1.5,0,2.801,0.2,4.101,0.601l26.2,8.5c0.899,0.3,1.6,0.399,2.3,0.399
			c0.6,0,1.2-0.1,1.6-0.3c0.8-0.399,1.8-1.2,2-2.2C610.144,597.688,609.943,597.088,609.443,594.888z"/>
	</g>
</g>
<g>
</g>
<g>
</g>
<g>
</g>
<g>
</g>
<g>
</g>
<g>
</g>
<g>
</g>
<g>
</g>
<g>
</g>
<g>
</g>
<g>
</g>
<g>
</g>
<g>
</g>
<g>
</g>
<g>
</g>
</svg>
