<?xml version="1.0" encoding="iso-8859-1"?>
<!-- Generator: Adobe Illustrator 16.0.0, SVG Export Plug-In . SVG Version: 6.00 Build 0)  -->
<!DOCTYPE svg PUBLIC "-//W3C//DTD SVG 1.1//EN" "http://www.w3.org/Graphics/SVG/1.1/DTD/svg11.dtd">
<svg version="1.1" id="Capa_1" xmlns="http://www.w3.org/2000/svg" xmlns:xlink="http://www.w3.org/1999/xlink" x="0px" y="0px"
	 width="945.925px" height="945.925px" viewBox="0 0 945.925 945.925" style="enable-background:new 0 0 945.925 945.925;"
	 xml:space="preserve">
<g>
	<g>
		<path d="M624.162,464.399c3,11.4,5.101,23,7.101,34.4c2.8,15.7,5.5,30.4,10.3,44.5c0.5,1.4,0.8,2.8,0.899,4.3
			c1.5,12.601-6.5,18.3-9,19.7c-2.8,1.6-6.1,2.5-9.5,2.5c-2.3,0-4.699-0.4-7.199-1.2l-28.601-9.2h-0.1c-1.101,0-2.4,0.4-2.9,0.7
			c-15.399,12.601-32.899,24.9-53.5,37.5c-7.8,4.8-16,9.601-24.2,14.2c-4.399,2.4-6.8,4.1-7.199,5c0,0,0,0.1,0,0.4v112.1
			c0,14.1-11,25.5-24.601,25.5h-7.899c-13.601,0-24.601-11.4-24.601-25.5V726V616c0-0.101,0-0.2,0-0.4
			c-21.399-11.6-55.5-31.6-84.7-55.5c-0.399-0.3-1.699-0.7-2.899-0.7c-0.101,0-0.101,0-0.101,0l-28.6,9.2c-2.4,0.8-4.8,1.2-7.2,1.2
			c-6.399,0-12-2.9-15.399-8c-2.2-3.2-5.2-10-1.301-19.7l1.2-3.1c3.9-12.8,6.3-26.2,8.9-40.3c2.1-11.4,4.2-22.9,7.1-34.301
			c-86.9,4.2-156.1,76-156.1,164v249.5c0,90.7,617.8,90.7,617.8,0v-249.5C781.763,540,711.862,467.899,624.162,464.399z"/>
		<path d="M314.662,305c3.8,9,7,18.9,13.3,26.4c4.4,5.3,11.301,9,18.2,10.1c19.7,31.5,32.9,68.899,29.601,105.899
			c-0.5,5.601-1.101,11.301-1.7,16.9c-0.4,3.9-0.9,7.8-1.4,11.6c1.3,3,3.8,7.4,6,10.301c15.5,20.5,43.7,50.899,90.5,80
			c1.101,0.1,4.7,0,5,0c46.7-29,75.101-58.9,90.9-79.301c2.7-3.3,5.899-9.3,6.5-11.1c-0.3-2.7-1.601-9.2-1.9-11.9
			c-0.6-5.6-0.8-10-1.1-16.3c-0.4-4.5-1.601-73,31-106.1c6.899-1,13.8-4.8,18.2-10.1c6.3-7.6,9.5-17.5,13.3-26.4
			c4.8-11.5,9.8-22.9,14.399-34.4c7.101-17.8,10.7-40.3-5.699-54.3c-4.5-3.8-10.5-5.7-16.301-5.7c-0.1,0-0.3,0-0.399,0l0,0
			c-0.7,0-1.4-1-2.101-2.6c0.2-28,2.7-57.4-1.199-85c-2.301-16.6-7.801-32.7-14.801-47.9c-16.199-34.9-42.899-56-79.699-67
			C508.162,3,490.462,0.2,472.962,0c-0.1,0-0.199,0-0.3,0c-0.1,0-0.2,0-0.3,0c-17.5,0.2-35.1,3-52.3,8.1c-36.8,11-63.4,32.1-79.7,67
			c-7.1,15.2-12.5,31.2-14.8,47.9c-3.9,27.6-1.4,57-1.2,85c-0.7,1.6-1.4,2.6-2.1,2.6l0,0c-0.101,0-0.301,0-0.4,0
			c-5.9,0-11.8,1.9-16.3,5.7c-16.5,14-12.8,36.5-5.7,54.3C304.763,282.1,309.763,293.5,314.662,305z"/>
		<path d="M354.962,425.399c-0.399,0-0.8,0.101-1.199,0.2c-0.9,0.2-1.7,0.8-2.301,1.7c-7.399,11.6-12.199,24.1-15.8,37
			c-7.3,26.1-9.399,53.8-17.5,79.8l-1.5,3.601c-1.7,4.3-0.5,7.1,2.8,7.1c0.801,0,1.601-0.1,2.601-0.5l28.899-9.3
			c1.4-0.4,2.9-0.601,4.5-0.601c2.801,0,5.7,0.601,8.301,1.7c1.5,0.601,2.899,1.4,4.1,2.4c2.3,1.899,4.6,3.7,7,5.6
			c23.9,18.601,50.1,34.4,69.3,45c0-0.2,0.101-0.3,0.101-0.5c1.1-4.5,3.1-8.7,5.899-12.7c1.601-2.199,3.4-4.3,5.4-6.3
			c0.899-0.899,1.8-1.7,2.7-2.5c-0.601-0.399-1.301-0.8-1.9-1.2c-10.2-6.5-19.5-13.1-28-19.6c-27.6-21.1-46.4-41.4-58.8-57.2
			c-1-1.3-2-2.6-2.9-3.8c-2-2.6-4.399-6.4-6.3-10.2c-1.3-2.6-2.4-5.1-3-7.3c-1.2-4.5-1.7-9-1.8-13.5
			c-0.2-11.1,2.399-22.1,4.399-33.6C360.562,427.8,357.662,425.399,354.962,425.399z"/>
		<path d="M458.162,726.1c0,1.101,0,2.2,0,3.3c0,5.801,4.3,10.5,9.601,10.5h7.899c5.3,0,9.601-4.699,9.601-10.5V617.3
			c0-9.7,7.399-14.4,14.899-18.6c8-4.5,15.9-9.101,23.7-13.801c12.3-7.5,24.3-15.5,36-24c5.4-4,10.7-8.1,15.9-12.3
			c2-1.6,4.699-2.8,7.6-3.5c1.6-0.399,3.2-0.6,4.8-0.6c1.601,0,3.101,0.2,4.5,0.6l28.9,9.3c0.899,0.301,1.8,0.5,2.6,0.5
			s1.5-0.199,2-0.5c2.3-1.3,1.601-4.6,1.5-5.199c0-0.301-0.1-0.7-0.2-1c-9.1-27.101-11.1-56.4-18.8-83.801
			c-3.6-12.899-8.399-25.3-15.8-37c-0.2-0.399-0.5-0.699-0.9-1c-0.8-0.6-1.699-0.899-2.6-0.899c-2.7,0-5.6,2.1-5,5.2
			c2,11.399,4.6,22.5,4.4,33.6c-0.101,4.8-0.7,9.6-2,14.5c-0.301,1.2-0.9,2.5-1.5,3.9c-2.101,4.699-5.5,10.1-8.101,13.399
			c-0.3,0.4-0.7,0.9-1.1,1.3c-12.9,16.4-33,38-62.8,60.4c-8.2,6.1-17,12.3-26.7,18.4c-1.4,0.899-2.7,1.699-4.101,2.6
			c-1.6,1-3.3,2-4.899,3c-0.5,0.3-1,0.6-1.5,0.9c-2.101,1.3-4.2,2.699-6.2,4.199c-0.5,0.4-0.9,0.7-1.4,1.101
			c-4.399,3.7-8.1,8.2-9.6,14c-0.4,1.399-0.5,2.899-0.7,4.399c-0.2,2.801-0.1,5.7,0,8.4c0,0.3,0,0.6,0,0.9c0,1.6,0,4.1,0,7.5
			C458.162,646.1,458.162,704.6,458.162,726.1z"/>
	</g>
</g>
<g>
</g>
<g>
</g>
<g>
</g>
<g>
</g>
<g>
</g>
<g>
</g>
<g>
</g>
<g>
</g>
<g>
</g>
<g>
</g>
<g>
</g>
<g>
</g>
<g>
</g>
<g>
</g>
<g>
</g>
</svg>
