<?xml version="1.0" encoding="iso-8859-1"?>
<!-- Generator: Adobe Illustrator 16.0.0, SVG Export Plug-In . SVG Version: 6.00 Build 0)  -->
<!DOCTYPE svg PUBLIC "-//W3C//DTD SVG 1.1//EN" "http://www.w3.org/Graphics/SVG/1.1/DTD/svg11.dtd">
<svg version="1.1" id="Capa_1" xmlns="http://www.w3.org/2000/svg" xmlns:xlink="http://www.w3.org/1999/xlink" x="0px" y="0px"
	 width="980px" height="980px" viewBox="0 0 980 980" style="enable-background:new 0 0 980 980;" xml:space="preserve">
<g>
	<g>
		<path d="M117.193,607.193c0,50.321,9.859,99.146,29.303,145.117c18.778,44.396,45.656,84.265,79.89,118.497
			c34.234,34.233,74.101,61.112,118.496,79.89C390.854,970.141,439.678,980,490,980c50.322,0,99.146-9.859,145.119-29.303
			c44.395-18.777,84.262-45.656,118.496-79.89c34.232-34.232,61.109-74.101,79.889-118.497
			c19.443-45.971,29.303-94.796,29.303-145.117c0-50.322-9.857-99.147-29.303-145.118c-18.777-44.396-45.656-84.264-79.889-118.497
			c-34.234-34.233-74.102-61.112-118.496-79.89c-26.879-11.369-54.736-19.455-83.295-24.216
			c39.271-21.814,65.91-63.722,65.91-111.74C617.734,57.301,560.434,0,490,0c-70.433,0-127.733,57.301-127.733,127.733
			c0,35.32,14.097,68.186,39.689,92.543c7.954,7.569,16.738,13.997,26.13,19.212c-28.528,4.762-56.353,12.843-83.204,24.2
			c-29.166,12.336-56.362,28.191-81.306,47.308l-43.067-43.067c-6.48-6.481-16.988-6.481-23.468,0l-50.292,50.292
			c-6.48,6.481-6.48,16.988,0,23.468l43.615,43.615c-17.589,23.693-32.276,49.366-43.867,76.771
			C127.054,508.046,117.193,556.872,117.193,607.193z M422.638,198.545c-19.585-18.639-30.371-43.787-30.371-70.812
			C392.267,73.843,436.11,30,490,30c53.89,0,97.734,43.843,97.734,97.733c0,43.428-28.477,80.325-67.734,93.017v-46.883h22.156
			c13.809,0,25-11.193,25-25c0-13.807-11.191-25-25-25H437.844c-13.808,0-25,11.193-25,25c0,13.807,11.192,25,25,25H460v46.885
			C446.173,216.303,433.412,208.797,422.638,198.545z M211.825,406.766c10.696-14.778,22.624-28.823,35.775-41.974
			c11.78-11.78,24.275-22.584,37.372-32.399c50.97-38.195,111.187-61.195,175.029-66.695c9.921-0.855,19.925-1.312,30-1.312
			c10.076,0,20.08,0.457,30,1.312c80.248,6.913,154.777,41.471,212.402,99.094c64.746,64.748,100.404,150.834,100.404,242.401
			c0,91.566-35.658,177.652-100.404,242.4C667.654,914.342,581.568,950,490,950c-91.567,0-177.653-35.658-242.401-100.406
			c-64.747-64.748-100.405-150.834-100.405-242.4C147.193,534.225,169.86,464.749,211.825,406.766z"/>
		<path d="M286.743,622.193H185.731c7.58,156.309,132.96,281.688,289.269,289.269v-101.01c0-8.284,6.716-15,15-15
			c8.285,0,15,6.716,15,15v101.01c156.309-7.58,281.688-132.96,289.27-289.269H693.258c-8.283,0-15-6.717-15-15
			c0-8.284,6.717-15,15-15H794.27C786.688,435.885,661.309,310.504,505,302.925v101.01c0,8.284-6.715,15-15,15
			c-8.284,0-15-6.716-15-15v-101.01c-60.558,2.937-116.466,23.56-162.689,56.809c-28.412,20.437-53.151,45.647-73.064,74.454
			c-31.311,45.297-50.676,99.478-53.514,158.007h101.011c8.284,0,15,6.716,15,15C301.744,615.478,295.026,622.193,286.743,622.193z
			 M470.973,594.517c0.836-1.042,1.843-2.068,2.812-2.922l177.697-154.263c1.275-1.107,3.047,0.597,1.99,1.914L506.215,622.792
			c-7.807,9.732-22.025,11.292-31.757,3.484C464.726,618.468,463.167,604.249,470.973,594.517z"/>
	</g>
</g>
<g>
</g>
<g>
</g>
<g>
</g>
<g>
</g>
<g>
</g>
<g>
</g>
<g>
</g>
<g>
</g>
<g>
</g>
<g>
</g>
<g>
</g>
<g>
</g>
<g>
</g>
<g>
</g>
<g>
</g>
</svg>
