<?xml version="1.0" encoding="iso-8859-1"?>
<!-- Generator: Adobe Illustrator 16.0.0, SVG Export Plug-In . SVG Version: 6.00 Build 0)  -->
<!DOCTYPE svg PUBLIC "-//W3C//DTD SVG 1.1//EN" "http://www.w3.org/Graphics/SVG/1.1/DTD/svg11.dtd">
<svg version="1.1" id="Capa_1" xmlns="http://www.w3.org/2000/svg" xmlns:xlink="http://www.w3.org/1999/xlink" x="0px" y="0px"
	 width="956.943px" height="956.943px" viewBox="0 0 956.943 956.943" style="enable-background:new 0 0 956.943 956.943;"
	 xml:space="preserve">
<g>
	<path d="M567.945,0H396.182c-16.568,0-30,13.432-30,30c0,16.568,13.432,30,30,30h50.882v60.846c11.589-0.918,23.259-1.386,35-1.386
		c11.741,0,23.411,0.468,35,1.386V60h50.882c16.568,0,30-13.432,30-30C597.945,13.432,584.514,0,567.945,0z"/>
	<path d="M105.117,337.371c18.986-32.975,42.239-63.302,69.499-90.562c27.763-27.763,58.71-51.367,92.394-70.542
		c-44.609-44.465-116.817-44.422-161.371,0.132C61.216,220.822,61.047,292.732,105.117,337.371z"/>
	<path d="M347.815,262.361c-34.094,15.703-65.498,37.481-92.833,64.816c-26.857,26.857-48.358,57.638-63.996,91.043
		c-19.679,42.04-30.063,88.239-30.063,136.038c0,85.781,33.404,166.426,94.06,227.082c60.656,60.654,141.301,94.059,227.081,94.059
		c85.78,0,166.426-33.402,227.081-94.059s94.06-141.301,94.06-227.082c0-85.78-33.403-166.426-94.06-227.081
		c-60.656-60.655-141.301-94.06-227.081-94.06C434.941,233.117,389.376,243.22,347.815,262.361z M492.063,554.258h255.012
		c0,146.363-118.649,265.012-265.012,265.012c-146.362,0-265.012-118.648-265.012-265.012c0-43.275,10.377-84.124,28.772-120.203
		c25.669-50.349,66.966-91.391,117.492-116.761c35.723-17.938,76.052-28.048,118.748-28.048v255.012
		C482.063,549.781,486.54,554.258,492.063,554.258z"/>
	<path d="M482.063,151.572c-11.748,0-23.418,0.5-35,1.49c-42.014,3.596-82.829,13.69-121.738,30.148
		c-11.874,5.021-23.444,10.585-34.702,16.668c-34.202,18.484-65.474,41.809-93.302,69.637
		c-27.325,27.325-50.296,57.977-68.618,91.455c-6.479,11.839-12.389,24.022-17.688,36.549
		c-20.994,49.635-31.639,102.37-31.639,156.739s10.645,107.104,31.639,156.738c20.281,47.949,49.318,91.016,86.306,128.004
		c36.988,36.986,80.054,66.023,128.004,86.305c49.636,20.994,102.369,31.639,156.738,31.639c54.369,0,107.104-10.645,156.738-31.639
		c47.95-20.281,91.017-49.316,128.004-86.305s66.023-80.055,86.306-128.004c20.994-49.637,31.64-102.369,31.64-156.738
		s-10.646-107.105-31.64-156.739c-20.28-47.95-49.317-91.017-86.306-128.004c-36.988-36.987-80.054-66.024-128.004-86.306
		c-38.91-16.458-79.726-26.553-121.738-30.148C505.482,152.071,493.812,151.572,482.063,151.572z M618.748,230.718
		c41.815,17.687,79.366,43.003,111.609,75.246c32.243,32.243,57.56,69.794,75.246,111.608
		c18.314,43.301,27.601,89.287,27.601,136.685s-9.285,93.385-27.601,136.686c-17.687,41.814-43.003,79.365-75.246,111.609
		c-32.243,32.242-69.794,57.559-111.608,75.246c-43.301,18.312-89.287,27.6-136.686,27.6c-47.398,0-93.384-9.285-136.684-27.6
		c-41.815-17.688-79.366-43.004-111.609-75.246c-32.243-32.244-57.56-69.795-75.246-111.609
		c-18.314-43.301-27.601-89.287-27.601-136.686s9.286-93.384,27.601-136.684c2.631-6.222,5.452-12.336,8.418-18.363
		c16.975-34.495,39.381-65.8,66.828-93.246c27.956-27.956,59.907-50.694,95.162-67.777c5.407-2.62,10.887-5.117,16.447-7.469
		c43.3-18.314,89.286-27.601,136.684-27.601C529.462,203.117,575.448,212.404,618.748,230.718z"/>
</g>
<g>
</g>
<g>
</g>
<g>
</g>
<g>
</g>
<g>
</g>
<g>
</g>
<g>
</g>
<g>
</g>
<g>
</g>
<g>
</g>
<g>
</g>
<g>
</g>
<g>
</g>
<g>
</g>
<g>
</g>
</svg>
