<?xml version="1.0" encoding="iso-8859-1"?>
<!-- Generator: Adobe Illustrator 16.0.0, SVG Export Plug-In . SVG Version: 6.00 Build 0)  -->
<!DOCTYPE svg PUBLIC "-//W3C//DTD SVG 1.1//EN" "http://www.w3.org/Graphics/SVG/1.1/DTD/svg11.dtd">
<svg version="1.1" id="Capa_1" xmlns="http://www.w3.org/2000/svg" xmlns:xlink="http://www.w3.org/1999/xlink" x="0px" y="0px"
	 width="940.2px" height="940.2px" viewBox="0 0 940.2 940.2" style="enable-background:new 0 0 940.2 940.2;" xml:space="preserve"
	>
<g>
	<g>
		<path d="M0.1,803.101C0.1,809.7,5.4,815,12,815h916.3c6.6,0,11.9-5.3,11.9-11.899v-268.5H650.5v23.1c0,9.601-7.8,17.4-17.4,17.4
			H527v106.1c0,9.601-7.8,17.4-17.4,17.4h-79c-9.6,0-17.399-7.8-17.399-17.4v-106H307c-9.601,0-17.4-7.8-17.4-17.399V534.7H0.1
			V803.101z"/>
		<path d="M773,126.9c-2.3-1.1-4.7-1.7-7.2-1.7H167.1c-2.5,0-5,0.6-7.2,1.7c-13.4,6.6-22,20.6-22,35.7v59h-126
			c-6.6,0-11.9,5.3-11.9,11.9v268.4h289.5v-23.1c0-9.601,7.8-17.4,17.399-17.4H413V355.2c0-9.6,7.8-17.4,17.399-17.4h79
			c9.601,0,17.4,7.8,17.4,17.4v106.101h106.1c9.601,0,17.4,7.8,17.4,17.399v23.2h289.5V233.4c0-6.6-5.3-11.9-11.9-11.9H795v-59
			C795,147.5,786.399,133.5,773,126.9z M170.7,221.5v-59c0-2,0.7-3.5,1.6-4.6h588.3c0.9,1.1,1.601,2.6,1.601,4.6v59H170.7z"/>
	</g>
</g>
<g>
</g>
<g>
</g>
<g>
</g>
<g>
</g>
<g>
</g>
<g>
</g>
<g>
</g>
<g>
</g>
<g>
</g>
<g>
</g>
<g>
</g>
<g>
</g>
<g>
</g>
<g>
</g>
<g>
</g>
</svg>
