<?xml version="1.0" encoding="iso-8859-1"?>
<!-- Generator: Adobe Illustrator 16.0.0, SVG Export Plug-In . SVG Version: 6.00 Build 0)  -->
<!DOCTYPE svg PUBLIC "-//W3C//DTD SVG 1.1//EN" "http://www.w3.org/Graphics/SVG/1.1/DTD/svg11.dtd">
<svg version="1.1" id="Capa_1" xmlns="http://www.w3.org/2000/svg" xmlns:xlink="http://www.w3.org/1999/xlink" x="0px" y="0px"
	 width="893.539px" height="893.539px" viewBox="0 0 893.539 893.539" style="enable-background:new 0 0 893.539 893.539;"
	 xml:space="preserve">
<g>
	<g>
		<path d="M826.192,462.01c5.93-0.013,10.738-4.831,10.738-10.762v-280.33c0-94.35-76.484-170.836-170.836-170.836h-62.076V0h-11
			h-11v0.082v35.159c0,24.628-15.408,48.955-42.277,66.743c-25.639,16.973-58.656,26.32-92.97,26.32
			c-34.316,0-67.334-9.348-92.972-26.32c-26.869-17.788-42.278-42.114-42.278-66.743V0.082V0h-11h-11v0.082h-62.077
			c-94.35,0-170.836,76.486-170.836,170.836v280.329c0,5.932,4.808,10.744,10.74,10.748l114.779,0.088V244.759
			c0-6.213,5.037-11.25,11.25-11.25s11.25,5.037,11.25,11.25v300.421c0,0.67-0.069,1.32-0.181,1.957l-0.591,335.661
			c-0.01,5.933,4.79,10.74,10.721,10.74h464.387c5.932,0,10.748-4.808,10.76-10.74l0.719-405.287V244.759
			c0-6.213,5.037-11.25,11.25-11.25s11.25,5.037,11.25,11.25v217.487L826.192,462.01z M534.849,519.717
			c-21.574,21.157-50.268,31.734-86.082,31.734c-33.318,0-61.054-8.746-83.208-26.237c-26.154-20.652-39.229-48.975-39.229-84.956
			c0-19.821,4.912-38.02,14.743-54.597c9.827-16.574,25.318-29.36,46.476-38.355c-18.159-7.659-31.358-18.197-39.604-31.608
			c-8.246-13.407-12.369-28.11-12.369-44.102c0-27.318,9.534-49.889,28.609-67.716c19.072-17.823,46.185-26.736,81.334-26.736
			c34.814,0,61.843,8.913,81.082,26.736c19.24,17.827,28.861,40.397,28.861,67.716c0,16.991-4.416,32.108-13.244,45.352
			c-8.832,13.243-21.238,23.362-37.23,30.358c20.32,8.163,35.771,20.075,46.352,35.731c10.576,15.66,15.867,33.732,15.867,54.223
			C567.208,471.078,556.419,498.563,534.849,519.717z"/>
		<path d="M446.519,377.29c-17.158,0-29.945,5.915-38.354,17.741c-8.414,11.829-12.618,24.655-12.618,38.479
			c0,19.325,4.954,34.399,14.867,45.228c9.909,10.83,22.278,16.241,37.105,16.241c14.494,0,26.486-5.204,35.982-15.617
			c9.494-10.408,14.242-25.443,14.242-45.103c0-17.154-4.832-30.94-14.492-41.354C473.587,382.498,461.343,377.29,446.519,377.29z"
			/>
		<path d="M445.519,321.069c13.326,0,23.988-3.955,31.984-11.869c7.996-7.91,11.994-18.865,11.994-32.858
			c0-13.157-3.959-23.695-11.869-31.608c-7.914-7.91-18.365-11.869-31.359-11.869c-13.492,0-24.236,3.998-32.232,11.994
			c-7.996,7.995-11.994,18.576-11.994,31.733c0,13.993,3.955,24.905,11.869,32.733C421.821,317.157,432.359,321.069,445.519,321.069
			z"/>
		<path d="M367.897,0.001h-11h-11v0.082v35.159c0,27.139,44.063,58.686,100.872,58.686c56.81,0,100.873-31.547,100.873-58.686V0.082
			V0h-11h-11v0.082v35.159c0,3.543-5.094,12.335-18.76,20.843C490.71,66.152,468.8,71.926,446.769,71.926
			c-22.03,0-43.94-5.774-60.112-15.842c-13.667-8.508-18.76-17.3-18.76-20.843V0.082V0.001z"/>
	</g>
</g>
<g>
</g>
<g>
</g>
<g>
</g>
<g>
</g>
<g>
</g>
<g>
</g>
<g>
</g>
<g>
</g>
<g>
</g>
<g>
</g>
<g>
</g>
<g>
</g>
<g>
</g>
<g>
</g>
<g>
</g>
</svg>
