<?xml version="1.0" encoding="iso-8859-1"?>
<!-- Generator: Adobe Illustrator 16.0.0, SVG Export Plug-In . SVG Version: 6.00 Build 0)  -->
<!DOCTYPE svg PUBLIC "-//W3C//DTD SVG 1.1//EN" "http://www.w3.org/Graphics/SVG/1.1/DTD/svg11.dtd">
<svg version="1.1" id="Capa_1" xmlns="http://www.w3.org/2000/svg" xmlns:xlink="http://www.w3.org/1999/xlink" x="0px" y="0px"
	 width="977.6px" height="977.6px" viewBox="0 0 977.6 977.6" style="enable-background:new 0 0 977.6 977.6;" xml:space="preserve"
	>
<g>
	<g>
		<path d="M968.5,475.05l-130.699-55.7l99.6-101.4c4.199-4.3,5.5-10.7,3.199-16.3c-2.299-5.6-7.699-9.2-13.699-9.3l-142.1-1.2
			l53.1-131.8c2.199-5.6,0.9-12-3.301-16.2c-4.299-4.3-10.6-5.6-16.199-3.3l-132,53.1l-1.201-142.1c-0.1-6-3.699-11.4-9.299-13.7
			c-5.6-2.3-12-1.1-16.301,3.2l-101.4,99.6l-55.6-130.8c-2.4-5.5-7.799-9.1-13.799-9.1c-6,0-11.4,3.6-13.801,9.1L419.3,139.85
			l-101.4-99.6c-4.3-4.2-10.7-5.5-16.3-3.2c-5.601,2.3-9.2,7.7-9.3,13.7l-1.2,142.1l-131.8-53.1c-5.6-2.2-12-0.9-16.2,3.3
			c-4.3,4.3-5.6,10.6-3.3,16.2l53.1,131.8l-142.1,1.2c-6,0.1-11.4,3.7-13.7,9.3c-2.3,5.6-1.1,12,3.2,16.3l99.5,101.5L9.1,475.05
			c-5.5,2.399-9.1,7.8-9.1,13.8s3.6,11.4,9.1,13.8l130.7,55.7l-99.6,101.4c-4.2,4.3-5.5,10.699-3.2,16.3c2.3,5.6,7.7,9.2,13.7,9.3
			l142.1,1.2l-53,131.8c-2.2,5.6-0.9,12,3.3,16.2c4.2,4.2,10.6,5.6,16.2,3.3l131.8-53.1l1.2,142.1c0.1,6,3.699,11.4,9.3,13.7
			c5.6,2.3,12,1.1,16.3-3.2l101.4-99.6L475,968.449c2.4,5.5,7.801,9.101,13.801,9.101c6,0,11.399-3.601,13.799-9.101l55.701-130.699
			l101.398,99.6c4.301,4.2,10.701,5.5,16.301,3.2s9.199-7.7,9.301-13.7l1.199-142.1l131.801,53.1c5.6,2.2,12,0.9,16.199-3.3
			c4.301-4.3,5.6-10.601,3.301-16.2l-53.102-131.8l142.102-1.2c6-0.1,11.398-3.7,13.699-9.3c2.301-5.601,1.1-12-3.199-16.3
			l-99.5-101.4l130.699-55.7c5.5-2.399,9.1-7.8,9.1-13.8S974,477.449,968.5,475.05z M805.801,539.35c-4.602,1.9-7.9,6-8.801,10.9
			c-1,4.899,0.5,9.899,4,13.399l90.199,91.9l-128.799,1.1c-5,0-9.6,2.5-12.301,6.7c-2.799,4.1-3.299,9.3-1.4,13.9l48.102,119.5
			l-119.5-48.101c-4.602-1.899-9.801-1.3-13.9,1.4c-4.1,2.8-6.6,7.399-6.701,12.3l-1.1,128.8l-91.9-90.2c-3.5-3.5-8.6-5-13.398-4
			c-4.9,1-8.9,4.301-10.9,8.801l-50.5,118.6l-50.5-118.6c-1.9-4.601-6-7.9-10.9-8.801c-1-0.199-1.899-0.3-2.899-0.3
			c-3.9,0-7.7,1.5-10.5,4.3l-91.9,90.2l-1.1-128.8c0-5-2.5-9.6-6.7-12.3c-4.101-2.8-9.3-3.3-13.9-1.4L181,796.75l48.1-119.5
			c1.9-4.601,1.3-9.801-1.4-13.9c-2.8-4.1-7.4-6.6-12.3-6.7l-129-1.1l90.2-91.9c3.5-3.5,5-8.6,4-13.399c-1-4.9-4.3-8.9-8.8-10.9
			l-118.6-50.5l118.6-50.5c4.6-1.9,7.9-6,8.8-10.9c1-4.899-0.5-9.899-4-13.399l-90.2-91.9l128.8-1.1c5,0,9.6-2.5,12.3-6.7
			c2.8-4.1,3.3-9.3,1.4-13.9l-48.1-119.5l119.6,48.1c4.6,1.9,9.8,1.3,13.9-1.4c4.1-2.8,6.6-7.4,6.699-12.3l1.101-128.8L414,176.75
			c3.5,3.5,8.601,5,13.4,4c4.9-1,8.9-4.3,10.9-8.8l50.5-118.6l50.5,118.6c1.898,4.6,6,7.9,10.898,8.8c4.9,1,9.9-0.5,13.4-4
			l91.9-90.2l1.1,128.8c0,5,2.5,9.6,6.701,12.3c4.1,2.8,9.299,3.3,13.898,1.4l119.5-48.1l-48.1,119.5c-1.9,4.6-1.299,9.8,1.4,13.9
			c2.801,4.1,7.4,6.6,12.301,6.7l128.799,1.1l-90.199,91.9c-3.5,3.5-5,8.6-4,13.399c1,4.9,4.299,8.9,8.799,10.9l118.701,50.5
			L805.801,539.35z"/>
		<path d="M279.6,507.75h33.1v18.1c-4.399,3.4-9.6,6.3-15.6,8.6c-6.101,2.4-12.1,3.601-18.2,3.601c-12.2,0-22.1-4.2-29.6-12.7
			s-11.3-21.2-11.3-38.2c0-15.7,3.7-27.6,11.2-35.6c7.4-8,17.5-12,30.1-12c8.3,0,15.3,2,20.8,6.1c5.6,4.101,9.3,9.601,11.399,16.601
			l28.7-5.4c-2.899-13.1-9.3-23.4-19.3-30.9c-10-7.399-23.8-11.199-41.6-11.199c-13.7,0-25.1,2.399-34.2,7.1
			c-12,6.2-21.2,15-27.4,26.6c-6.2,11.601-9.4,24.801-9.4,39.7c0,13.7,2.8,26.4,8.4,38.101c5.6,11.699,13.9,20.6,25.1,26.899
			c11.1,6.3,24.1,9.4,39.1,9.4c11.8,0,23.4-2.2,34.9-6.7s20.199-9.6,26.3-15.5v-56.9h-62.2v24.301H279.6z"/>
		<path d="M431.8,414.949c-11.601,0-21.9,1.9-30.801,5.7c-6.699,2.8-12.899,7.101-18.5,12.9c-5.6,5.8-10.1,12.3-13.3,19.6
			c-4.399,9.9-6.5,22.101-6.5,36.7c0,22.8,6.3,40.6,18.8,53.6s29.4,19.5,50.7,19.5c21,0,37.8-6.5,50.3-19.5
			c12.5-13,18.801-31.1,18.801-54.199c0-23.301-6.301-41.4-19-54.5C469.7,421.449,452.8,414.949,431.8,414.949z M460.4,525.649
			c-7.4,8.3-16.8,12.4-28.3,12.4s-21-4.2-28.5-12.5c-7.5-8.4-11.2-20.601-11.2-36.8c0-16.4,3.6-28.7,10.9-36.9
			c7.3-8.2,16.899-12.2,28.8-12.2c11.899,0,21.399,4,28.6,12.101c7.2,8.1,10.8,20.3,10.8,36.699
			C471.4,504.949,467.8,517.35,460.4,525.649z"/>
		<path d="M564.9,417.35l-55.6,143h30.6l11.799-32.5h57.102l12.5,32.5h31.398l-57.199-143H564.9z M560.6,503.75l19.301-53l19.699,53
			H560.6z"/>
		<polygon points="697.699,418.55 668.801,418.55 668.801,560.35 769.4,560.35 769.4,536.25 697.699,536.25 		"/>
	</g>
</g>
<g>
</g>
<g>
</g>
<g>
</g>
<g>
</g>
<g>
</g>
<g>
</g>
<g>
</g>
<g>
</g>
<g>
</g>
<g>
</g>
<g>
</g>
<g>
</g>
<g>
</g>
<g>
</g>
<g>
</g>
</svg>
