<?xml version="1.0" encoding="iso-8859-1"?>
<!-- Generator: Adobe Illustrator 16.0.0, SVG Export Plug-In . SVG Version: 6.00 Build 0)  -->
<!DOCTYPE svg PUBLIC "-//W3C//DTD SVG 1.1//EN" "http://www.w3.org/Graphics/SVG/1.1/DTD/svg11.dtd">
<svg version="1.1" id="Capa_1" xmlns="http://www.w3.org/2000/svg" xmlns:xlink="http://www.w3.org/1999/xlink" x="0px" y="0px"
	 width="953.5px" height="953.5px" viewBox="0 0 953.5 953.5" style="enable-background:new 0 0 953.5 953.5;" xml:space="preserve"
	>
<g>
	<g>
		<path d="M791.85,541.1c-9.5-22.6-23.199-42.8-40.6-60.2c-17.4-17.399-37.6-31-60.2-40.6c-15.2-6.4-31-10.8-47.2-13
			c2.2,4.6,3.9,9.2,5.301,13.8c1.8,6.101,3.1,12.3,3.899,18.3c1.2,8.801,1.601,17.4,1.8,26L664.15,598.2
			c-4.801,1.8-10.801,4.399-17.101,7.6c-20.1,10.3-32.5,22.2-36.899,35.5c-2.7,8.1-3.7,20.7,6.8,34.9
			c21.5,29,10.6,41.3-27.101,75.699c-18.6,17-40.399,37-60.3,64.301v-79.801c-2.6,1-5.5,1.601-8.5,1.601h-7.7
			c-3.1,0-6.1-0.601-8.8-1.7v124.5V923c-9.2,0.2-18.5,0.3-27.8,0.3s-18.6-0.1-27.8-0.3v-62.2v-124.4c-2.7,1.101-5.601,1.7-8.7,1.7
			h-7.7c-3,0-6-0.6-8.6-1.6v79.8c-19.8-27.4-41.7-47.3-60.3-64.3c-37.7-34.5-48.601-46.7-27.101-75.7c10.5-14.2,9.5-26.8,6.8-34.9
			c-4.399-13.3-16.8-25.199-36.899-35.5c-6.3-3.199-12.4-5.8-17.101-7.6L298.95,482c0.2-7.4,0.7-15,1.7-22.5
			c0.8-6.101,2.1-12.2,4-18.4c1.399-4.6,3.1-9.1,5.199-13.7c-16.3,2.301-32.1,6.601-47.399,13.101c-22.6,9.5-42.8,23.2-60.2,40.6
			c-17.4,17.4-31,37.601-40.6,60.2c-9.9,23.4-14.9,48.2-14.9,73.8v242.3c0,9,2.5,22.5,14.6,35.7c6.9,7.5,15.9,14.101,27.7,20
			c18.3,9.2,43.7,17,75.7,23.3c56.3,11,131.5,17.101,212,17.101s155.8-6.101,212-17.101c31.9-6.3,57.4-14.1,75.7-23.3
			c11.8-5.899,20.899-12.5,27.7-20c12-13.2,14.6-26.7,14.6-35.7v-242.5C806.75,589.3,801.75,564.5,791.85,541.1z M176.75,857.2
			V614.899c0-66.399,40.6-123.3,98.3-147.3l-11.4,138.2c-0.5,5.9,3.2,11.3,8.9,13c17.101,5.2,43.101,18,47.2,30.4
			c0.8,2.5,1.2,6.1-3.2,12.1c-16.3,22-19.899,42.1-11.1,61.5c7.5,16.5,23.2,30.9,41.399,47.5c24.5,22.4,54.801,50.1,77.101,93.5
			v58.5C293.45,917.8,176.75,896,176.75,857.2z M776.75,857.2c0,38.8-116.7,60.5-247.2,65.1v-58.5c22.4-43.4,52.7-71.1,77.101-93.5
			c9.399-8.6,18.1-16.6,25.399-24.6h55.5c6.9,0,12.5-5.601,12.5-12.5c0-6.9-5.6-12.5-12.5-12.5h-38.6c7.6-18.801,3.7-38.2-12-59.5
			c-4.4-5.9-4-9.601-3.2-12.101c4.1-12.399,30.1-25.3,47.2-30.399c5.7-1.7,9.399-7.101,8.899-13L678.45,467.5
			c57.7,24,98.3,80.899,98.3,147.3V857.2L776.75,857.2z"/>
		<path d="M318.45,305c3.8,9,7,18.9,13.3,26.4c4.4,5.3,11.3,9,18.2,10.1c15.8,25.3,27.399,54.3,29.7,83.899
			c0.6,7.301,0.6,14.7-0.101,22c-0.2,2.7-0.5,5.301-0.8,8c-0.5,4.7-1.3,10.2-1.9,14.9c3.301,19.7,25.601,52.5,29.301,56.3
			c16.5,21.5,41.399,34.8,44.899,36.601c8.5,3.899,16.9,6,25.4,6.1c0.1,0,0.2,0,0.3,0s0.2,0,0.3,0c8.601-0.1,17.2-3,25.8-6.2
			c1.9-0.8,24.4-12.3,43.7-36.6c21.101-25.5,29.101-48.7,30-56.101c-0.6-4.899-1.399-10.1-1.899-15c-0.301-2.699-0.5-5.3-0.801-8
			c-0.6-7.3-0.6-14.699-0.1-22c2.3-29.6,13.9-58.7,29.7-83.899c6.899-1,13.8-4.8,18.2-10.1c6.3-7.6,9.5-17.5,13.3-26.4
			c4.8-11.5,9.8-22.9,14.399-34.4c7.101-17.8,10.7-40.3-5.699-54.3c-4.5-3.8-10.5-5.7-16.301-5.7c-0.1,0-0.3,0-0.399,0l0,0
			c-0.7,0-1.4-1-2.101-2.6c0.2-28,2.7-57.4-1.199-85c-2.301-16.6-7.801-32.7-14.801-47.9c-16.199-34.9-42.899-56-79.699-67
			C512.05,3,494.35,0.2,476.85,0c-0.1,0-0.199,0-0.3,0c-0.1,0-0.2,0-0.3,0c-17.5,0.2-35.1,3-52.3,8.1c-36.8,11-63.4,32.1-79.7,67
			c-7.1,15.2-12.5,31.2-14.8,47.9c-3.9,27.6-1.4,57-1.2,85c-0.7,1.6-1.4,2.6-2.1,2.6l0,0c-0.101,0-0.301,0-0.4,0
			c-5.9,0-11.8,1.9-16.3,5.7c-16.5,14-12.8,36.5-5.7,54.3C308.65,282.1,313.65,293.5,318.45,305z"/>
		<path d="M423.95,716.7c1.399,3.699,4.7,6.399,8.6,6.399h7.7c3.9,0,7.3-2.6,8.7-6.399c0.399-1.2,0.7-2.5,0.7-3.801v-125
			c0-0.6-0.101-1.3-0.2-1.899c-0.101-0.7-0.3-1.5-0.5-2.2c-1.4-4.1-4.3-7-8.2-9.2c-0.7-0.3-5.8-3-13.2-8.3
			c-7.5-5.4-17.399-13.6-27.399-24.9c-9.5-10.6-19.101-24-26.9-40.399c-3.1-6.5-5.9-13.4-8.4-20.8c-2.6-7.7-4.699-16-6.3-24.801
			c-0.399-2.199-0.8-4.5-1.1-6.8c-1.101-7.399-1.8-15.1-2-23.2c-0.101-2.199-0.101-4.399-0.101-6.6c0-1.4-0.399-2.5-1-3.4
			c-0.199-0.3-0.699-0.399-1.5-0.399c-0.699,0-1.699,0.1-2.699,0.3c-6.9,1.3-19.9,6.3-21,8.2c-0.5,0.7-0.9,1.399-1.301,2.1
			c-0.699,1.101-1.3,2.3-1.899,3.4c-5,9.2-7.8,18.399-9.5,27.7c-0.4,2.3-0.8,4.699-1,7.1c-2.7,22.4,0,46-4.8,73
			c-0.601,3.7,0.3,6.5,3.399,6.5c0.7,0,1.4-0.1,2.3-0.4l28-9.1c2.7-0.9,5.101-1.5,7.4-1.5c1.9,0,3.7,0.5,5.4,1.4
			c1.3,0.8,2.5,1.899,3.6,3.399c0,0,2.1,2.9,5.6,7.7c10.5,13.9,34,43.1,57.101,59.1v108.9C423.25,714.2,423.55,715.5,423.95,716.7z"
			/>
		<path d="M637.45,456.7c-1.7-9.301-4.5-18.4-9.4-27.5c-0.6-1.2-1.3-2.301-2-3.5c-0.399-0.7-0.8-1.4-1.3-2.2
			c-1.2-1.9-14.5-7-21.3-8.2c-0.9-0.2-1.8-0.3-2.4-0.3c-0.8,0-1.3,0.1-1.5,0.399c-0.6,0.9-1,2-1,3.4c0,2.2,0,4.4-0.1,6.6
			c-0.3,8.4-1,16.4-2.101,24c-0.3,2-0.6,4-1,6c-1.6,8.9-3.8,16.7-6.399,24.601c-2.5,7.399-5.3,14.899-8.5,21.3
			c-7.8,16.1-17.3,29.3-26.601,39.9c-10,11.3-19.8,19.5-27.399,25c-7.5,5.5-12.7,8.199-13.4,8.5c-3.899,2.1-7.2,5.5-8.399,9.899
			c-0.101,0.5-0.2,1-0.301,1.5c-0.1,0.7-0.199,1.3-0.199,2V713c0,1.1,0.199,2.2,0.5,3.2c1.199,4,4.699,7,8.8,7h7.7
			c3.699,0,7-2.4,8.5-5.9c0.6-1.3,0.899-2.8,0.899-4.3V603.899c23.4-16.199,47.3-46.1,57.5-59.699c3.3-4.4,5.2-7.101,5.2-7.101
			c1-1.399,2.2-2.5,3.3-3.2c1.7-1.1,3.601-1.6,5.7-1.6c2.2,0,4.7,0.6,7.4,1.5l28,9.1c0.8,0.301,1.6,0.4,2.199,0.4
			c3.2,0,4.101-3,3.5-6.5c-4.8-27-2.1-50.5-4.8-72.9C638.25,461.399,637.85,459,637.45,456.7z"/>
	</g>
</g>
<g>
</g>
<g>
</g>
<g>
</g>
<g>
</g>
<g>
</g>
<g>
</g>
<g>
</g>
<g>
</g>
<g>
</g>
<g>
</g>
<g>
</g>
<g>
</g>
<g>
</g>
<g>
</g>
<g>
</g>
</svg>
