<?xml version="1.0" encoding="iso-8859-1"?>
<!-- Generator: Adobe Illustrator 16.0.0, SVG Export Plug-In . SVG Version: 6.00 Build 0)  -->
<!DOCTYPE svg PUBLIC "-//W3C//DTD SVG 1.1//EN" "http://www.w3.org/Graphics/SVG/1.1/DTD/svg11.dtd">
<svg version="1.1" id="Capa_1" xmlns="http://www.w3.org/2000/svg" xmlns:xlink="http://www.w3.org/1999/xlink" x="0px" y="0px"
	 width="945.4px" height="945.4px" viewBox="0 0 945.4 945.4" style="enable-background:new 0 0 945.4 945.4;" xml:space="preserve"
	>
<g>
	<g>
		<path d="M222.2,590.3c13.4-31.699,32.6-60.199,57.1-84.699c14.8-14.801,31-27.601,48.5-38.4L11,10.6C9.5,8.2,7.5,6.9,5.4,6.9
			C3.5,6.9,1.5,8,0,10.1l0.1,388.7c0,5.5,2.3,13.801,5.2,18.5L202,673.7C204.2,644.9,210.9,617,222.2,590.3z"/>
		<path d="M940,6.9c-2.1,0-4.1,1.2-5.6,3.7l-319.9,461c14.9,9.8,28.8,21.199,41.601,34c24.5,24.5,43.699,53,57.1,84.699
			c12.9,30.4,19.8,62.5,20.8,95.601l206.101-268.5c2.899-4.7,5.199-13,5.199-18.5L945.4,10.2C943.9,8,941.9,6.9,940,6.9z"/>
		<path d="M369.2,534.101c-10.8,6.699-20.9,14.399-30.1,23.1c-17.7,16.6-32.2,36.7-42.4,59.1c-5.2,11.301-9.3,23.301-12.1,35.7
			c-3.101,13.5-4.7,27.601-4.7,42.101C279.9,797.9,364,882,467.8,882c103.801,0,187.9-84.1,187.9-187.899
			c0-23.301-4.2-45.601-12-66.2c-11.9-31.2-31.6-58.4-57-79.2c-32.4-26.6-73.9-42.5-119-42.5
			C431.601,506.2,397.8,516.4,369.2,534.101z M507,843.4h-58.2V624.2c-21.3,19.9-46.3,34.6-75.1,44.1v-52.8
			c15.2-5,31.7-14.399,49.5-28.3s30-30,36.6-48.5H507V843.4L507,843.4z"/>
		<path d="M583,478.5c-34.3-18.399-73.6-28.899-115.3-28.899c-38.7,0-75.4,9-107.9,25.1c-3.3,1.6-6.6,3.3-9.8,5.1
			c-3.2,1.801-6.399,3.601-9.5,5.5c-70.4,43-117.2,120.4-117.2,208.7c0,0.8,0,1.601,0,2.5c0,3.7,0.1,7.4,0.3,11
			c0.2,3.7,0.5,7.3,0.8,11c12.3,123.5,116.5,220,243.2,220c127.6,0,232.399-97.8,243.5-222.6c0.399-4.2,0.6-8.3,0.8-12.5
			c0.1-3.101,0.2-6.2,0.2-9.3c0-2.9-0.101-5.7-0.2-8.601c-2.8-81.899-45.9-153.5-110-195.7c-3.101-2-6.2-4-9.3-5.8
			C589.4,482,586.2,480.2,583,478.5z M611.601,550.101C618,556.5,624,563.4,629.5,570.5c2.601,3.4,5,6.8,7.4,10.3
			c7.2,10.7,13.3,22,18.3,34c2.9,6.9,5.4,13.801,7.5,20.9c2.7,9,4.8,18.2,6.2,27.5c1.5,10.1,2.3,20.4,2.3,30.8
			c0,27.5-5.4,54.101-16,79.2c-10.3,24.2-24.9,46-43.6,64.7c-18.7,18.7-40.5,33.399-64.7,43.6c-25.101,10.601-51.8,16-79.2,16
			s-54.1-5.399-79.2-16c-24.2-10.3-46-24.899-64.7-43.6c-18.699-18.7-33.399-40.5-43.6-64.7c-10.6-25.1-16-51.8-16-79.2
			c0-4.8,0.2-9.6,0.5-14.399c0.5-7.7,1.5-15.4,2.9-22.9c1.9-10.2,4.6-20.2,8-30c1.4-4,2.9-8,4.6-11.9
			c10.3-24.199,24.9-46,43.6-64.699c5.9-5.9,12.101-11.4,18.601-16.5c7.2-5.601,14.7-10.7,22.5-15.301c3.899-2.3,7.899-4.399,12-6.5
			c3.8-1.899,7.7-3.699,11.6-5.399c25.101-10.601,51.8-16,79.2-16c27.5,0,54.1,5.399,79.2,16c7.6,3.2,15,6.899,22.1,11
			c5.601,3.2,11,6.7,16.3,10.399C594.7,534.5,603.4,542,611.601,550.101z"/>
	</g>
</g>
<g>
</g>
<g>
</g>
<g>
</g>
<g>
</g>
<g>
</g>
<g>
</g>
<g>
</g>
<g>
</g>
<g>
</g>
<g>
</g>
<g>
</g>
<g>
</g>
<g>
</g>
<g>
</g>
<g>
</g>
</svg>
