<?xml version="1.0" encoding="iso-8859-1"?>
<!-- Generator: Adobe Illustrator 16.0.0, SVG Export Plug-In . SVG Version: 6.00 Build 0)  -->
<!DOCTYPE svg PUBLIC "-//W3C//DTD SVG 1.1//EN" "http://www.w3.org/Graphics/SVG/1.1/DTD/svg11.dtd">
<svg version="1.1" id="Capa_1" xmlns="http://www.w3.org/2000/svg" xmlns:xlink="http://www.w3.org/1999/xlink" x="0px" y="0px"
	 width="960.723px" height="960.723px" viewBox="0 0 960.723 960.723" style="enable-background:new 0 0 960.723 960.723;"
	 xml:space="preserve">
<g>
	<g>
		<path d="M751.695,214.406l-36.42-64.653c-2.711-4.812-7.105-4.812-9.816,0l-36.418,64.653c-2.711,4.812-8.734,6.388-13.455,3.519
			l-63.426-38.545c-4.721-2.868-8.531-0.716-8.516,4.807l0.221,74.211c0.018,5.523-4.445,9.882-9.967,9.736l-74.195-1.956
			c-5.521-0.146-7.738,3.603-4.953,8.371l26.719,45.741c2.787,4.769,9.521,8.635,15.045,8.635h239.742
			c8.717,0,15.781,7.065,15.781,15.781V574.28c0,5.521,3.826,12.324,8.547,15.193l27.992,17.01c4.719,2.869,8.531,0.717,8.516-4.807
			l-0.223-74.211c-0.016-5.523,4.445-9.883,9.967-9.736l74.195,1.957c5.521,0.145,7.738-3.604,4.953-8.371l-37.404-64.034
			c-2.787-4.77-1.131-10.809,3.697-13.49l64.824-36.003c4.828-2.682,4.828-7.029,0-9.711l-64.824-36.003
			c-4.828-2.682-6.484-8.721-3.697-13.49l37.404-64.033c2.785-4.769,0.568-8.517-4.953-8.371l-74.195,1.955
			c-5.521,0.146-9.982-4.214-9.967-9.736l0.223-74.211c0.016-5.523-3.797-7.675-8.516-4.807l-63.428,38.545
			C760.43,220.793,754.404,219.218,751.695,214.406z"/>
		<path d="M8.7,813.192c5.305,2.455,11.553,1.604,16.008-2.18l67.882-57.641h581.939l67.883,57.641
			c2.764,2.35,6.219,3.566,9.711,3.566c2.135,0,4.283-0.455,6.297-1.387c5.305-2.455,8.701-7.768,8.701-13.613V368.571
			c0-8.284-6.717-15-15-15H15c-8.284,0-15,6.716-15,15v431.008C0,805.425,3.396,810.737,8.7,813.192z M737.121,421.42v345.743
			l-42.066-35.721c0.307-85.752,6.471-202.455,33.193-285.664C731.234,436.477,734.225,428.413,737.121,421.42z M722.1,383.571
			c-6.254,10.971-13.271,26-20.219,46.391c-23.52,69.032-35.883,167.696-36.789,293.411H102.028
			c-0.905-125.715-13.27-224.379-36.789-293.411c-6.947-20.391-13.964-35.42-20.218-46.391H722.1L722.1,383.571z M30,421.42
			c2.897,6.992,5.887,15.057,8.874,24.357c26.721,83.208,32.886,199.911,33.193,285.665L30,767.163V421.42z"/>
		<path d="M588.805,556.671c42.203,0,76.416-34.213,76.416-76.416c0-42.204-34.213-76.417-76.416-76.417
			s-76.416,34.213-76.416,76.417C512.389,522.458,546.6,556.671,588.805,556.671z M524.453,482.825l17.602-16.198
			c0.744-0.684,1.189-2.043,0.994-3.035l-4.607-23.433c7.23-9.062,16.84-16.141,27.887-20.269l20.879,11.693
			c0.883,0.494,2.311,0.494,3.193,0l20.881-11.693c11.045,4.127,20.654,11.205,27.885,20.268l-4.607,23.433
			c-0.193,0.992,0.25,2.351,0.994,3.035l17.602,16.197c-0.453,11.506-3.938,22.24-9.678,31.436l-23.637,3.518
			c-1,0.148-2.131,1.023-2.527,1.953l-9.369,22.037c-6.049,1.885-12.479,2.902-19.141,2.902s-13.09-1.018-19.139-2.902
			l-9.371-22.037c-0.396-0.93-1.525-1.805-2.525-1.953l-23.639-3.518C528.391,505.065,524.908,494.331,524.453,482.825z"/>
		<path d="M570.049,503.944c0.311,0.961,1.385,1.74,2.395,1.74h32.721c1.01,0,2.082-0.779,2.395-1.74l10.111-31.119
			c0.311-0.961-0.098-2.222-0.916-2.816l-26.471-19.232c-0.818-0.594-2.143-0.594-2.961,0l-26.471,19.232
			c-0.818,0.595-1.227,1.855-0.916,2.816L570.049,503.944z"/>
	</g>
</g>
<g>
</g>
<g>
</g>
<g>
</g>
<g>
</g>
<g>
</g>
<g>
</g>
<g>
</g>
<g>
</g>
<g>
</g>
<g>
</g>
<g>
</g>
<g>
</g>
<g>
</g>
<g>
</g>
<g>
</g>
</svg>
