<?xml version="1.0" encoding="iso-8859-1"?>
<!-- Generator: Adobe Illustrator 16.0.0, SVG Export Plug-In . SVG Version: 6.00 Build 0)  -->
<!DOCTYPE svg PUBLIC "-//W3C//DTD SVG 1.1//EN" "http://www.w3.org/Graphics/SVG/1.1/DTD/svg11.dtd">
<svg version="1.1" id="Capa_1" xmlns="http://www.w3.org/2000/svg" xmlns:xlink="http://www.w3.org/1999/xlink" x="0px" y="0px"
	 width="954.201px" height="954.2px" viewBox="0 0 954.201 954.2" style="enable-background:new 0 0 954.201 954.2;"
	 xml:space="preserve">
<g>
	<g>
		<path d="M753.8,478.7c-17.5-17.5-37.9-31.3-60.6-40.9c-23.5-10-48.5-15-74.201-15h-18.6c-0.9-1.699-1.9-3.3-2.9-4.899
			c-0.5-0.9-1.199-2.3-2.5-2.9c-1.299-0.5-4.398-0.2-5.699,1.4c-0.699,0.899-0.5,3.2-0.301,4.6c0.102,0.601,0.201,1.3,0.301,1.9
			c1.699,8.8,4.1,17.1,4.6,25.6c0.1,1.5,0.1,2.9,0.1,4.4c0,1.1-0.1,2.1-0.199,3.2c-0.5,5.5-2.1,11.199-5.4,17.3
			c-0.199,0.399-0.4,0.8-0.699,1.2c-0.301,0.399-0.6,0.8-0.9,1.199c-2.301,3.101-4.9,6.601-7.9,10.301c-3.301,4-7,8.399-11.301,13
			c-2.199,2.3-4.398,4.699-6.799,7.1c-17.301,17.5-41.6,37.9-74.5,58c-1,0.6-1.9,1.2-2.9,1.8c-0.199,0.101-0.4,0.2-0.6,0.4
			c-0.801,0.5-1.701,1.1-2.6,1.6c-2,1.3-4,2.601-5.901,4.101c-2,1.5-3.899,3.1-5.6,4.699c-0.101,0.101-0.2,0.2-0.3,0.301
			C465.6,580,464.6,583.8,464.3,587.7c-0.1,1.6-0.1,3.2-0.1,4.8c0,0.5,0,1,0,1.5c0,1.101,0.1,3.4,0.1,6.601c0,2.199,0,4.899,0,7.899
			c0.101,23,0,65.8,0,85.3c0,6.101,0,12.301,0,18.4c0,5.7,4.2,10.3,9.4,10.3h7.799c5.201,0,9.4-4.6,9.4-10.3c0,0,0-109.6,0-109.8
			c0-8.4,6.4-13.3,13-17.3c1.4-0.801,2.801-1.601,4.201-2.4c13.799-7.8,30.699-17.9,47.6-29.8c1.699-1.2,3.299-2.3,5-3.5
			c6.4-4.601,12.699-9.4,18.799-14.4c1.4-1.2,3.301-2.1,5.201-2.8c0.9-0.3,1.699-0.5,2.6-0.7c0.699-0.2,1.5-0.2,2.4-0.2
			c2.199,0,4.699,0.4,7.199,1c0.301,0.101,0.6,0.101,0.9,0.2c2.699,0.7,5.4,1.5,7.6,2.2l9.201,3c3.799,1.2,9,3.2,12.199,3.2
			c1.199,0,2.199-0.3,2.699-1l0,0c1.301-0.8,2-2.3,1.4-4.3c-4.5-13.5-7.299-27.4-9.799-41.5c-2.301-12.601-4.5-25.301-7.701-37.5
			c-0.299-1.301-0.699-2.7-1.1-4h6.5c88.801,0,160.699,72,160.699,160.699v244.301c0,44.399-151.199,66.6-302.399,66.6
			c-151.2,0-302.4-22.2-302.4-66.6V613.5c0-88.8,72-160.7,160.7-160.7h7.899c-0.1,0.4-0.199,0.9-0.399,1.301
			c-3,10.899-5.101,22.1-7.101,33.3c-2.699,14.6-5.3,29.3-9.6,43.399l-1.4,3.601c-1.699,4.2-0.5,7,2.801,7
			c0.699,0,1.6-0.101,2.5-0.4l26.3-8.5l0.899-0.3l1-0.3c1.301-0.4,2.801-0.601,4.4-0.601c2.3,0,4.8,0.5,7,1.301
			c1.9,0.699,3.7,1.6,5,2.699c6.1,5,12.4,9.801,18.8,14.4c1.5,1.1,3,2.2,4.5,3.2c18.601,13,37.2,24.1,51.7,32.1
			c0.4-3.3,1.2-6.899,2.9-10.399c1.3-2.7,3.1-5.4,5.6-7.9c0.6-0.6,1.2-1.2,1.9-1.8c0.8-0.7,1.6-1.4,2.399-2.101
			c-30.399-19.3-52.8-39-69-56.199c-2.7-2.801-5.2-5.601-7.5-8.301c-3.899-4.5-7.399-8.699-10.399-12.699
			c-3.101-4-5.801-7.7-8.101-11c-0.5-0.801-0.899-1.7-1.3-2.5c-2.9-5.9-4.4-11.2-4.9-16.101c-0.1-1.1-0.199-2.1-0.199-3.2
			c0-1.5,0-3,0.1-4.399c0.6-8.601,3.5-16.5,5.4-25.601c0.199-1,0.399-1.899,0.6-2.899c0.2-1.4-0.2-2.601-0.9-3.5
			c-1.3-1.601-4.399-2-5.6-1.5c-0.7,0.3-1.4,0.8-1.9,1.6s-1,1.7-1.5,2.5c-0.699,1.2-1.399,2.5-2.1,3.7h-19.7c-25.7,0-50.7,5-74.2,15
			c-22.7,9.6-43.1,23.4-60.6,40.9s-31.3,37.899-40.9,60.6c-10,23.5-15,48.5-15,74.2v244.3c0,9,2.5,22.6,14.6,35.8
			c6.9,7.601,16,14.101,27.9,20.101c18.4,9.3,44,17.199,76.2,23.399c56.7,11.101,132.601,17.2,213.601,17.2c81,0,157-6.1,213.6-17.2
			c32.199-6.3,57.799-14.2,76.199-23.399c11.9-6,21-12.5,27.9-20.101c12.1-13.3,14.6-26.8,14.6-35.8V613.5c0-25.7-5-50.7-15-74.2
			C785,516.601,771.3,496.2,753.8,478.7z"/>
		<path d="M232.6,879.5c0,0,14.4,7.2,36.3,9.9V507.9v-23.7c-25.4,11-36.3,28.8-36.3,28.8V879.5z"/>
		<path d="M362.9,545.5c-0.101,0-0.2,0-0.2,0l-5.3,1.7v356.7c0,0,29,2.7,36.3,2.7v-339.5c-9.4-6.5-18.9-13.4-27.9-20.801
			C365.5,546,364.101,545.5,362.9,545.5z"/>
		<path d="M685.601,484.2v23.7v381.6c21.898-2.7,36.299-9.899,36.299-9.899V513C721.9,513,710.9,495.2,685.601,484.2z"/>
		<path d="M590,545.8c-0.799,0.2-1.199,0.5-1.398,0.601c-9,7.399-18.5,14.399-27.9,20.8v340.5c7.4,0,36.299-2.7,36.299-2.7V547.3
			C594.5,546.601,591.701,545.8,590,545.8z"/>
		<path d="M319,305.1c3.8,9,7,18.9,13.3,26.4c4.4,5.3,11.301,9,18.2,10.1c15.3,24.5,26.7,52.5,29.5,81.2
			c0.8,8.2,0.9,16.5,0.2,24.801c-0.2,1.699-0.3,3.5-0.5,5.199c-0.4,4-0.8,8-1.3,11.9c14.399,21.3,43.7,56.2,97.2,89
			c0.1-0.1,0.199-0.1,0.199-0.2c28.401-17.1,53.1-36.1,73.401-56.399c12.9-12.801,21.6-23.801,27-31.601c-0.5-4.3-1-8.5-1.4-12.8
			c-0.199-1.7-0.301-3.5-0.5-5.2c-0.699-8.3-0.6-16.5,0.199-24.8C577.3,394,588.701,366,604,341.5c6.9-1,13.801-4.8,18.201-10.1
			c6.299-7.6,9.5-17.5,13.299-26.4c4.801-11.5,9.801-22.9,14.4-34.4c7.1-17.8,10.701-40.3-5.699-54.3c-4.5-3.8-10.5-5.7-16.301-5.7
			c-0.1,0-0.299,0-0.4,0l0,0c-0.699,0-1.398-1-2.1-2.6c0.201-28,2.701-57.4-1.199-85C621.9,106.4,616.4,90.3,609.4,75.1
			c-16.199-34.9-42.9-56-79.699-67C512.601,3,494.9,0.2,477.4,0c-0.101,0-0.2,0-0.3,0C477,0,476.9,0,476.8,0
			c-17.5,0.2-35.1,3-52.3,8.1c-36.8,11-63.399,32.1-79.7,67c-7.1,15.2-12.5,31.2-14.8,47.9c-3.899,27.6-1.399,57-1.2,85
			c-0.699,1.6-1.399,2.6-2.1,2.6l0,0c-0.1,0-0.3,0-0.4,0c-5.899,0-11.8,1.9-16.3,5.7c-16.5,14-12.8,36.5-5.7,54.3
			C309.2,282.3,314.2,293.7,319,305.1z"/>
	</g>
</g>
<g>
</g>
<g>
</g>
<g>
</g>
<g>
</g>
<g>
</g>
<g>
</g>
<g>
</g>
<g>
</g>
<g>
</g>
<g>
</g>
<g>
</g>
<g>
</g>
<g>
</g>
<g>
</g>
<g>
</g>
</svg>
