<?xml version="1.0" encoding="iso-8859-1"?>
<!-- Generator: Adobe Illustrator 16.0.0, SVG Export Plug-In . SVG Version: 6.00 Build 0)  -->
<!DOCTYPE svg PUBLIC "-//W3C//DTD SVG 1.1//EN" "http://www.w3.org/Graphics/SVG/1.1/DTD/svg11.dtd">
<svg version="1.1" id="Capa_1" xmlns="http://www.w3.org/2000/svg" xmlns:xlink="http://www.w3.org/1999/xlink" x="0px" y="0px"
	 width="943.254px" height="943.254px" viewBox="0 0 943.254 943.254" style="enable-background:new 0 0 943.254 943.254;"
	 xml:space="preserve">
<g>
	<g>
		<path d="M284.783,217.77c38.24-12.48,79.07-19.231,121.477-19.231c186.877,0,343.145,131.038,381.942,306.242l50.477,0.581
			c5.522,0.064,7.799-3.784,5.084-8.594l-51.6-91.424c-2.714-4.811-1.034-10.94,3.754-13.693l91-52.325
			c4.788-2.753,4.788-7.216,0-9.969l-91-52.325c-4.788-2.753-6.468-8.884-3.754-13.693l51.6-91.423
			c2.715-4.81,0.438-8.657-5.084-8.594l-105.056,1.21c-5.522,0.064-10.053-4.362-10.118-9.884L722.26,49.604
			c-0.064-5.522-3.979-7.731-8.741-4.933l-90.582,53.224c-4.763,2.798-10.878,1.198-13.659-3.573L556.369,3.578
			c-2.782-4.771-7.292-4.771-10.074,0l-52.907,90.744c-2.781,4.771-8.896,6.371-13.658,3.573l-90.583-53.224
			c-4.763-2.798-8.676-0.589-8.74,4.933l-1.246,105.044c-0.065,5.522-4.595,9.948-10.118,9.884l-105.057-1.21
			c-5.522-0.064-7.799,3.784-5.084,8.594L284.783,217.77z"/>
		<path d="M406.26,943.254c195.24,0,353.515-158.274,353.515-353.515c0-29.449-3.606-58.054-10.393-85.404
			c-38.201-153.979-177.331-268.11-343.122-268.11c-35.659,0-70.082,5.285-102.536,15.106
			C158.487,295.278,52.746,430.157,52.746,589.738C52.746,784.979,211.019,943.254,406.26,943.254z M722.266,618.476l2.642,2.43
			c0.934,0.859,2.033,1.483,3.206,1.887c-3.231,32.02-11.177,63.138-23.75,92.864c-3.97,9.386-8.365,18.535-13.161,27.442
			c-1.21-0.334-2.486-0.44-3.757-0.251l-129.944,19.341l-59.644-77.725l21.373-65.778l18.288-56.285l91.234-29.977L722.266,618.476z
			 M421.26,360.323l113.772-63.714c1.12-0.627,2.063-1.491,2.815-2.495c36.247,16.147,68.917,38.612,97.17,66.865
			c3.843,3.842,7.572,7.769,11.199,11.772c-0.699,1.013-1.21,2.158-1.453,3.394L619.67,503.828l-94.412,31.021l-103.999-75.56
			L421.26,360.323L421.26,360.323z M477.628,707.383l56.723,73.918L483.71,900.397c-0.503,1.182-0.721,2.443-0.702,3.699
			c-24.942,6.071-50.605,9.158-76.749,9.158c-26.143,0-51.806-3.087-76.749-9.158c0.02-1.255-0.198-2.517-0.702-3.699
			l-50.641-119.096l56.723-73.918L477.628,707.383L477.628,707.383z M177.5,360.979c28.252-28.253,60.923-50.717,97.17-66.864
			c0.24,0.32,0.493,0.63,0.772,0.918c0.597,0.615,1.281,1.15,2.044,1.577l113.772,63.714v98.966l-62.383,45.325L287.26,534.85
			l-94.412-31.021l-25.095-127.683c-0.243-1.236-0.754-2.381-1.453-3.394C169.928,368.748,173.659,364.821,177.5,360.979z
			 M121.318,743.098c-4.796-8.907-9.192-18.056-13.162-27.442c-12.574-29.727-20.519-60.845-23.75-92.864
			c1.173-0.402,2.272-1.026,3.207-1.887l96.153-88.481L275,562.399l39.661,122.064l-59.644,77.724l-129.942-19.341
			C123.804,742.657,122.528,742.764,121.318,743.098z"/>
	</g>
</g>
<g>
</g>
<g>
</g>
<g>
</g>
<g>
</g>
<g>
</g>
<g>
</g>
<g>
</g>
<g>
</g>
<g>
</g>
<g>
</g>
<g>
</g>
<g>
</g>
<g>
</g>
<g>
</g>
<g>
</g>
</svg>
