<?xml version="1.0" encoding="iso-8859-1"?>
<!-- Generator: Adobe Illustrator 16.0.0, SVG Export Plug-In . SVG Version: 6.00 Build 0)  -->
<!DOCTYPE svg PUBLIC "-//W3C//DTD SVG 1.1//EN" "http://www.w3.org/Graphics/SVG/1.1/DTD/svg11.dtd">
<svg version="1.1" id="Capa_1" xmlns="http://www.w3.org/2000/svg" xmlns:xlink="http://www.w3.org/1999/xlink" x="0px" y="0px"
	 width="980px" height="980px" viewBox="0 0 980 980" style="enable-background:new 0 0 980 980;" xml:space="preserve">
<g>
	<g>
		<path d="M200.563,980h159.606h59.98h139.701h59.98h159.605c8.283,0,15-6.716,15-15V15c0-8.284-6.717-15-15-15H619.833h-59.98
			H420.151h-59.98H200.563c-8.284,0-15,6.716-15,15v950C185.563,973.284,192.279,980,200.563,980z M544.853,950H435.151v-39.851
			h109.7V950H544.853z M604.833,950h-29.98v-54.851c0-8.284-6.717-15-15-15H420.151c-8.284,0-15,6.716-15,15V950h-29.98v-99.831
			h229.663V950z M426.47,820.169c16.344-17.198,39.234-27.319,63.531-27.319c24.558,0,47.33,10.081,63.605,27.319H426.47
			L426.47,820.169z M435.151,30h109.7v39.851h-109.7V30z M375.17,30h29.98v54.851c0,8.284,6.716,15,15,15h139.7
			c8.285,0,15-6.716,15-15V30h29.98v99.831H375.17V30z M552.646,159.831c-16.203,16.624-38.566,26.312-62.644,26.312
			c-23.822,0-46.298-9.722-62.572-26.312H552.646z M215.563,30h129.606v114.831c0,8.284,6.716,15,15,15h29.468
			c21.309,34.846,59.347,56.312,100.363,56.312c41.428,0,79.073-21.357,100.366-56.312h29.465c8.285,0,15-6.716,15-15V30h129.605
			v445H606.628c-7.389-57.776-56.873-102.579-116.626-102.579c-59.753,0-109.237,44.803-116.626,102.579H215.563V30z M403.712,475
			c7.135-41.17,43.111-72.579,86.289-72.579c43.177,0,79.154,31.41,86.289,72.579H403.712z M576.29,505
			c-7.135,41.17-43.111,72.579-86.289,72.579c-43.178,0-79.154-31.409-86.289-72.579H576.29z M215.563,505h157.811
			c7.389,57.776,56.874,102.579,116.626,102.579c59.752,0,109.239-44.803,116.627-102.579h157.811v445H634.833V835.169
			c0-8.284-6.717-15-15-15h-28.844c-21.18-35.556-59.16-57.319-100.988-57.319c-41.411,0-79.786,21.881-100.971,57.319h-28.86
			c-8.284,0-15,6.716-15,15V950H215.563V505z"/>
	</g>
</g>
<g>
</g>
<g>
</g>
<g>
</g>
<g>
</g>
<g>
</g>
<g>
</g>
<g>
</g>
<g>
</g>
<g>
</g>
<g>
</g>
<g>
</g>
<g>
</g>
<g>
</g>
<g>
</g>
<g>
</g>
</svg>
