<?xml version="1.0" encoding="iso-8859-1"?>
<!-- Generator: Adobe Illustrator 16.0.0, SVG Export Plug-In . SVG Version: 6.00 Build 0)  -->
<!DOCTYPE svg PUBLIC "-//W3C//DTD SVG 1.1//EN" "http://www.w3.org/Graphics/SVG/1.1/DTD/svg11.dtd">
<svg version="1.1" id="Capa_1" xmlns="http://www.w3.org/2000/svg" xmlns:xlink="http://www.w3.org/1999/xlink" x="0px" y="0px"
	 width="964.248px" height="964.248px" viewBox="0 0 964.248 964.248" style="enable-background:new 0 0 964.248 964.248;"
	 xml:space="preserve">
<g>
	<g>
		<path d="M657.668,0h-47.865H354.447h-47.865c-68.426,0-124.095,55.669-124.095,124.095v716.057
			c0,68.426,55.669,124.096,124.095,124.096h47.865h255.354h47.865c68.426,0,124.096-55.67,124.096-124.096V124.094
			C781.762,55.668,726.094,0,657.668,0z M369.447,30h225.354v97.679H369.447V30z M544.021,157.678
			c-15.998,16.609-38.271,26.368-61.897,26.368c-23.881,0-46.038-9.722-61.969-26.368H544.021z M594.803,934.246H369.447v-97.678
			h225.354v97.678H594.803z M421.101,806.568c15.855-16.045,37.615-25.377,61.023-25.377c23.155,0,45.01,9.369,60.934,25.377
			H421.101z M751.762,840.152c0,51.883-42.211,94.096-94.094,94.096h-32.865v-112.68c0-8.283-6.717-15-15-15h-28.842
			c-21.014-34.27-58.459-55.377-98.835-55.377c-40.782,0-77.843,21-98.841,55.377h-28.837c-8.284,0-15,6.717-15,15v112.678h-32.865
			c-51.884,0-94.095-42.211-94.095-94.094V497.125h154.729c7.378,56.834,56.096,100.877,114.908,100.877
			c58.813,0,107.53-44.043,114.909-100.879h154.729V840.152L751.762,840.152z M566.664,497.125
			c-7.119,40.223-42.305,70.877-84.54,70.877c-42.235,0-77.42-30.654-84.54-70.877H566.664z M397.584,467.125
			c7.119-40.224,42.305-70.879,84.54-70.879c42.235,0,77.42,30.655,84.54,70.879H397.584z M751.762,467.125H597.033
			c-7.379-56.837-56.096-100.878-114.909-100.878c-58.812,0-107.53,44.042-114.908,100.877h-154.73V124.094
			c0-51.884,42.211-94.095,94.095-94.095h32.865v112.679c0,8.284,6.716,15,15,15h28.223c20.885,34.97,58.279,56.368,99.455,56.368
			c40.764,0,78.545-21.513,99.44-56.368h28.238c8.283,0,15-6.716,15-15V30h32.865c51.883,0,94.094,42.211,94.094,94.095V467.125
			L751.762,467.125z"/>
	</g>
</g>
<g>
</g>
<g>
</g>
<g>
</g>
<g>
</g>
<g>
</g>
<g>
</g>
<g>
</g>
<g>
</g>
<g>
</g>
<g>
</g>
<g>
</g>
<g>
</g>
<g>
</g>
<g>
</g>
<g>
</g>
</svg>
