<?xml version="1.0" encoding="iso-8859-1"?>
<!-- Generator: Adobe Illustrator 16.0.0, SVG Export Plug-In . SVG Version: 6.00 Build 0)  -->
<!DOCTYPE svg PUBLIC "-//W3C//DTD SVG 1.1//EN" "http://www.w3.org/Graphics/SVG/1.1/DTD/svg11.dtd">
<svg version="1.1" id="Capa_1" xmlns="http://www.w3.org/2000/svg" xmlns:xlink="http://www.w3.org/1999/xlink" x="0px" y="0px"
	 width="972.801px" height="972.801px" viewBox="0 0 972.801 972.801" style="enable-background:new 0 0 972.801 972.801;"
	 xml:space="preserve">
<g>
	<g>
		<path d="M957.801,249.1c8.299,0,15-6.7,15-15c0-8.3-6.701-15-15-15h-4.5H809.4c2.299-5.4,3.6-11.3,3.6-17.5
			c0-19.2-12.301-35.6-29.4-41.8V53.2c0-8.3-6.699-15-15-15c-8.299,0-15,6.7-15,15v106.6c-17.1,6.2-29.4,22.6-29.4,41.8
			c0,6.2,1.301,12.1,3.602,17.5H245c2.3-5.4,3.6-11.3,3.6-17.5c0-19.2-12.3-35.6-29.4-41.8V53.2c0-8.3-6.7-15-15-15
			c-8.3,0-15,6.7-15,15v106.6c-17.1,6.2-29.4,22.6-29.4,41.8c0,6.2,1.3,12.1,3.6,17.5H19.5H15c-8.3,0-15,6.7-15,15
			c0,8.3,6.7,15,15,15h4.5v655.5H15c-8.3,0-15,6.699-15,15c0,8.3,6.7,15,15,15h4.5h933.801h4.5c8.299,0,15-6.7,15-15
			c0-8.301-6.701-15-15-15h-4.5V249.1H957.801z M747,201.6c0-11.9,9.699-21.6,21.6-21.6s21.6,9.7,21.6,21.6
			c0,7.2-3.5,13.6-8.898,17.5h-25.4C750.5,215.2,747,208.8,747,201.6z M182.5,201.6c0-11.9,9.7-21.6,21.6-21.6
			c11.9,0,21.6,9.7,21.6,21.6c0,7.2-3.5,13.6-8.9,17.5h-25.4C186.1,215.2,182.5,208.8,182.5,201.6z M923.301,904.601H49.5V249.1
			h873.801V904.601L923.301,904.601z"/>
		<path d="M213.1,766.8h546.599c13.801,0,25-11.199,25-25V416.5c0-13.8-11.199-25-25-25H213.1c-13.8,0-25,11.2-25,25v325.3
			C188.1,755.601,199.3,766.8,213.1,766.8z M754.699,492.8H683.4v172.7h71.299v71.3H501.4V629.3c21.6-6.5,37.4-26.5,37.4-50.199
			c0-23.7-15.801-43.7-37.4-50.2V421.5h253.299V492.8z M218.1,421.5h253.3V529c-21.6,6.5-37.4,26.5-37.4,50.2s15.801,43.7,37.4,50.2
			v107.5H218.1v-71.3h71.8V492.8h-71.8V421.5L218.1,421.5z"/>
	</g>
</g>
<g>
</g>
<g>
</g>
<g>
</g>
<g>
</g>
<g>
</g>
<g>
</g>
<g>
</g>
<g>
</g>
<g>
</g>
<g>
</g>
<g>
</g>
<g>
</g>
<g>
</g>
<g>
</g>
<g>
</g>
</svg>
