<?xml version="1.0" encoding="iso-8859-1"?>
<!-- Generator: Adobe Illustrator 16.0.0, SVG Export Plug-In . SVG Version: 6.00 Build 0)  -->
<!DOCTYPE svg PUBLIC "-//W3C//DTD SVG 1.1//EN" "http://www.w3.org/Graphics/SVG/1.1/DTD/svg11.dtd">
<svg version="1.1" id="Capa_1" xmlns="http://www.w3.org/2000/svg" xmlns:xlink="http://www.w3.org/1999/xlink" x="0px" y="0px"
	 width="942px" height="942px" viewBox="0 0 942 942" style="enable-background:new 0 0 942 942;" xml:space="preserve">
<g>
	<g>
		<polygon points="942,374.8 942,343.7 819.8,343.7 819.8,598.199 942,598.199 942,567.1 845.8,567.1 845.8,374.8 		"/>
		<path d="M486,541v21.801c44.2-7.201,78.1-45.701,78.1-91.901c0-46.2-33.899-84.7-78.1-91.899v21.8
			c32.399,6.899,56.7,35.6,56.7,70.1C542.7,505.4,518.399,534.1,486,541z"/>
		<polygon points="0,567.1 0,598.199 120.5,598.199 120.5,343.7 0,343.7 0,374.8 96.2,374.8 96.2,567.1 		"/>
		<path d="M456,400.9v-21.8c-44.2,7.2-78.101,45.7-78.101,91.9c0,46.199,33.9,84.699,78.101,91.9V541.1
			c-32.4-6.9-56.601-35.6-56.601-70.1C399.399,436.5,423.7,407.8,456,400.9z"/>
		<path d="M456,184H10c-5.5,0-10,4.5-10,10v119.7h125.5c13.8,0,25,11.2,25,25v60.6V542.6v60.6c0,13.801-11.2,25-25,25H0V747.9
			c0,5.5,4.5,10,10,10h446V595.4C393.899,588,345.7,535,345.7,471c0-64,48.3-117,110.3-124.4V184z"/>
		<path d="M942,194c0-5.5-4.5-10-10-10H486v162.6C548.1,354,596.3,407,596.3,471c0,64-48.3,117-110.3,124.4V758h446
			c5.5,0,10-4.5,10-10V628.199H814.8c-13.8,0-25-11.199-25-25v-60.6V399.3v-60.6c0-13.8,11.2-25,25-25H942V194z"/>
	</g>
</g>
<g>
</g>
<g>
</g>
<g>
</g>
<g>
</g>
<g>
</g>
<g>
</g>
<g>
</g>
<g>
</g>
<g>
</g>
<g>
</g>
<g>
</g>
<g>
</g>
<g>
</g>
<g>
</g>
<g>
</g>
</svg>
