<?xml version="1.0" encoding="iso-8859-1"?>
<!-- Generator: Adobe Illustrator 16.0.0, SVG Export Plug-In . SVG Version: 6.00 Build 0)  -->
<!DOCTYPE svg PUBLIC "-//W3C//DTD SVG 1.1//EN" "http://www.w3.org/Graphics/SVG/1.1/DTD/svg11.dtd">
<svg version="1.1" id="Capa_1" xmlns="http://www.w3.org/2000/svg" xmlns:xlink="http://www.w3.org/1999/xlink" x="0px" y="0px"
	 width="980px" height="980px" viewBox="0 0 980 980" style="enable-background:new 0 0 980 980;" xml:space="preserve">
<g>
	<g>
		<path d="M167.642,522.7h246.1c-1.601,26.5,7.5,52.199,26.6,75.3c21.4,25.899,54.4,47.3,95.3,62.1c27.4,9.9,56.9,16,86,18.2
			l-274.7,276.1c-5.801,5.9-5.801,15.4,0.1,21.2c2.9,2.9,6.8,4.4,10.6,4.4c3.9,0,7.7-1.5,10.601-4.4l454.8-457.3
			c3-3,4.5-7.1,4.299-11.2c0-0.1,0-0.2,0-0.399V15c0-8.3-6.699-15-15-15c-8.299,0-15,6.7-15,15v477.7H167.642c-8.3,0-15,6.699-15,15
			C152.642,516,159.341,522.7,167.642,522.7z M650.741,649c-2.4,0.1-4.799,0.1-7.199,0.1c-71.4,0-145.5-28.5-180.1-70.2
			c-14.7-17.699-21.301-36.6-19.601-56.199h332.5L650.741,649z"/>
		<path d="M538.642,159.9l219.9,129.2c5.299,3.1,9.5,0.6,9.5-5.4V25c0-6.1-4.301-8.5-9.5-5.4l-219.9,129.1
			C533.442,151.8,533.442,156.8,538.642,159.9z"/>
	</g>
</g>
<g>
</g>
<g>
</g>
<g>
</g>
<g>
</g>
<g>
</g>
<g>
</g>
<g>
</g>
<g>
</g>
<g>
</g>
<g>
</g>
<g>
</g>
<g>
</g>
<g>
</g>
<g>
</g>
<g>
</g>
</svg>
