<?xml version="1.0" encoding="iso-8859-1"?>
<!-- Generator: Adobe Illustrator 16.0.0, SVG Export Plug-In . SVG Version: 6.00 Build 0)  -->
<!DOCTYPE svg PUBLIC "-//W3C//DTD SVG 1.1//EN" "http://www.w3.org/Graphics/SVG/1.1/DTD/svg11.dtd">
<svg version="1.1" id="Capa_1" xmlns="http://www.w3.org/2000/svg" xmlns:xlink="http://www.w3.org/1999/xlink" x="0px" y="0px"
	 width="980px" height="980px" viewBox="0 0 980 980" style="enable-background:new 0 0 980 980;" xml:space="preserve">
<g>
	<path d="M953.005,130.449H26.995C12.11,130.449,0,142.559,0,157.444v575.755c0,14.885,12.11,26.995,26.995,26.995H265.09v77.361
		c0,6.625,5.37,11.995,11.995,11.995h425.83c6.625,0,11.995-5.371,11.995-11.995v-77.361h238.095
		c14.885,0,26.995-12.11,26.995-26.995V157.444C980,142.56,967.89,130.449,953.005,130.449z M950,730.194H30V160.449h920V730.194z"
		/>
	<path d="M105.048,627.052c8.284,0,15-6.716,15-15v-333.46c0-8.284-6.716-15-15-15s-15,6.716-15,15v333.46
		C90.048,620.336,96.764,627.052,105.048,627.052z"/>
	<path d="M360.941,627.052c8.283,0,15-6.716,15-15v-333.46c0-8.284-6.717-15-15-15c-8.284,0-15,6.716-15,15v333.46
		C345.941,620.336,352.657,627.052,360.941,627.052z"/>
	<path d="M138.634,249.211h188.721c8.284,0,15-6.716,15-15s-6.716-15-15-15H138.634c-8.284,0-15,6.716-15,15
		S130.35,249.211,138.634,249.211z"/>
	<path d="M138.634,671.433h188.721c8.284,0,15-6.716,15-15c0-8.283-6.716-15-15-15H138.634c-8.284,0-15,6.717-15,15
		C123.634,664.717,130.35,671.433,138.634,671.433z"/>
	<path d="M650.244,249.211h188.72c8.284,0,15-6.716,15-15s-6.716-15-15-15h-188.72c-8.284,0-15,6.716-15,15
		S641.96,249.211,650.244,249.211z"/>
	<path d="M874.952,417.141c8.284,0,15-6.716,15-15V274.994c0-8.284-6.716-15-15-15s-15,6.716-15,15V402.14
		C859.952,410.425,866.668,417.141,874.952,417.141z"/>
	<path d="M426.427,461.521h127.146c8.284,0,15-6.717,15-15c0-8.284-6.716-15-15-15H426.427c-8.284,0-15,6.716-15,15
		C411.427,454.805,418.143,461.521,426.427,461.521z"/>
	<path d="M874.952,631.25c8.284,0,15-6.716,15-15V489.104c0-8.283-6.716-15-15-15s-15,6.717-15,15V616.25
		C859.952,624.534,866.668,631.25,874.952,631.25z"/>
	<path d="M650.244,673.832h188.72c8.284,0,15-6.716,15-15s-6.716-15-15-15h-188.72c-8.284,0-15,6.716-15,15
		S641.96,673.832,650.244,673.832z"/>
	<path d="M650.244,461.521h188.72c8.284,0,15-6.717,15-15c0-8.284-6.716-15-15-15h-188.72c-8.284,0-15,6.716-15,15
		C635.244,454.805,641.96,461.521,650.244,461.521z"/>
</g>
<g>
</g>
<g>
</g>
<g>
</g>
<g>
</g>
<g>
</g>
<g>
</g>
<g>
</g>
<g>
</g>
<g>
</g>
<g>
</g>
<g>
</g>
<g>
</g>
<g>
</g>
<g>
</g>
<g>
</g>
</svg>
