<?xml version="1.0" encoding="iso-8859-1"?>
<!-- Generator: Adobe Illustrator 16.0.0, SVG Export Plug-In . SVG Version: 6.00 Build 0)  -->
<!DOCTYPE svg PUBLIC "-//W3C//DTD SVG 1.1//EN" "http://www.w3.org/Graphics/SVG/1.1/DTD/svg11.dtd">
<svg version="1.1" id="Capa_1" xmlns="http://www.w3.org/2000/svg" xmlns:xlink="http://www.w3.org/1999/xlink" x="0px" y="0px"
	 width="964.901px" height="964.9px" viewBox="0 0 964.901 964.9" style="enable-background:new 0 0 964.901 964.9;"
	 xml:space="preserve">
<g>
	<g>
		<path d="M302.15,733.3c0,99.601,80.7,180.301,180.3,180.301c99.601,0,180.301-80.7,180.301-180.301
			c0-99.6-80.7-180.3-180.301-180.3C382.85,553,302.15,633.7,302.15,733.3z M370.25,694h83.199l25.7-79.1c1.8-5.601,4.7-5.601,6.5,0
			l25.7,79.1h83.2c5.8,0,6.8,2.8,2,6.2l-67.3,48.9l25.699,79.1c1.801,5.6-0.6,7.3-5.3,3.8l-67.3-48.899L415.05,832
			c-4.7,3.4-7.101,1.7-5.3-3.8l25.699-79.1l-67.3-48.9C363.45,696.8,364.35,694,370.25,694z"/>
		<path d="M318.65,569.5c-43.7,43.7-67.8,101.9-67.8,163.8c0,61.9,24.1,120,67.8,163.801c43.7,43.8,101.9,67.8,163.8,67.8
			c61.9,0,120-24.101,163.801-67.8c43.8-43.7,67.8-101.9,67.8-163.801c0-61.899-24.101-120-67.8-163.8
			c-40.301-40.3-92.9-63.899-149.301-67.399V488.5H662.75c7.699,0,14-6.3,14-14v-64.7c0-7.699-6.301-14-14-14H631.95V10
			c0-5.5-4.5-10-10-10h-279c-5.5,0-10,4.5-10,10v385.7h-30.8c-7.7,0-14,6.3-14,14v64.7c0,7.7,6.3,14,14,14h165.8V502
			C411.55,505.601,358.95,529.2,318.65,569.5z M316.15,460.4V423.8h16.8V433.9c0,5.5,4.5,10,10,10h278.9c5.5,0,10-4.5,10-10V423.8
			h16.8V460.4H316.15z M684.05,733.3c0,111.2-90.5,201.601-201.601,201.601c-111.1,0-201.6-90.5-201.6-201.601
			c0-111.1,90.4-201.6,201.6-201.6C593.65,531.7,684.05,622.101,684.05,733.3z"/>
	</g>
</g>
<g>
</g>
<g>
</g>
<g>
</g>
<g>
</g>
<g>
</g>
<g>
</g>
<g>
</g>
<g>
</g>
<g>
</g>
<g>
</g>
<g>
</g>
<g>
</g>
<g>
</g>
<g>
</g>
<g>
</g>
</svg>
