<?xml version="1.0" encoding="iso-8859-1"?>
<!-- Generator: Adobe Illustrator 16.0.0, SVG Export Plug-In . SVG Version: 6.00 Build 0)  -->
<!DOCTYPE svg PUBLIC "-//W3C//DTD SVG 1.1//EN" "http://www.w3.org/Graphics/SVG/1.1/DTD/svg11.dtd">
<svg version="1.1" id="Capa_1" xmlns="http://www.w3.org/2000/svg" xmlns:xlink="http://www.w3.org/1999/xlink" x="0px" y="0px"
	 width="980.001px" height="980.001px" viewBox="0 0 980.001 980.001" style="enable-background:new 0 0 980.001 980.001;"
	 xml:space="preserve">
<g>
	<path d="M313.97,787.95v-573.7v-20l0,0c0-0.4,0-0.8,0-1.2l-18.101,8.5l-238.8,110l13.7,30.2l212.5-100.3v48.5l-196.6,91.2
		l12.7,30.2l183.9-87.3v455.5C283.169,779.551,295.369,785.65,313.97,787.95z"/>
	<path d="M909.37,341.75l13.7-30.2l-238.8-110l-18.101-8.5c0,0.4,0,0.8,0,1.2l0,0v20v573.7c18.601-2.3,30.7-8.399,30.7-8.399v-455.5
		l183.9,87.3l12.7-30.2l-196.601-91.1v-48.5L909.37,341.75z"/>
	<path d="M393.669,249.051l-4.8,1.6v549.7c0,0,24.5,2.3,30.7,2.3v-534.8c-8.5-5.8-17-12-25.1-18.6
		C394.169,249.051,393.97,248.951,393.669,249.051z"/>
	<path d="M585.77,249.15c-8.101,6.6-16.7,12.9-25.101,18.6v535.6c6.2,0,30.7-2.3,30.7-2.3v-550.5l-4.8-1.6
		C586.169,248.951,586.07,248.951,585.77,249.15z"/>
	<path d="M955.87,273.551l-267.2-121.5c-9.199-4.2-55.8-11.4-73.3-11.4h-5.7c4.7,9.8,7.9,20,10.301,30.2
		c17.6,1,50.899,6.8,56.699,8.7l266.801,121.3c5.6,2.5,8.199,9.2,5.6,14.9l-50.8,113.2c-1.2,2.7-3.5,4.801-6.3,5.9
		c-2.7,1-5.7,1-8.301-0.2l-141.1-71.3v407.3c0,4-13.1,18-71.5,29.5c-47.6,9.3-111.9,14.4-181.1,14.4
		c-69.2,0-133.4-5.101-181.101-14.4c-58.4-11.399-71.5-25.399-71.5-29.5v-407.3l-141.1,71.3c-2.7,1.101-5.6,1.2-8.3,0.2
		c-2.8-1.1-5-3.1-6.2-5.9l-50.7-113.2c-2.5-5.6,0-12.3,5.7-14.9l266.7-121.4c5.8-1.9,39.8-7.9,57.199-8.8
		c2.4-10.2,5.601-20.3,10.301-30.1h-6.301c-17.5,0-64.1,7.2-73.399,11.4l-267,121.5c-20.7,9.3-30,33.8-20.6,54.5l50.8,113.2
		c4.5,10,12.7,17.7,23,21.601c10.3,3.899,21.5,3.5,31.5-1l0.3-0.101l98.2-49.6v358.5c0,15.6,10.5,28.7,31.2,39.2
		c15.3,7.699,37,14.399,64.5,19.699c49.4,9.7,115.801,15,186.801,15c71,0,137.4-5.3,186.8-15c27.399-5.399,49.1-12,64.5-19.699
		c20.7-10.4,31.2-23.601,31.2-39.2v-358.4l97.899,49.5l0.601,0.3c10,4.5,21.199,4.9,31.5,1c10.3-3.899,18.5-11.6,23-21.6l50.8-113.2
		C985.77,307.351,976.47,282.851,955.87,273.551z"/>
	<path d="M464.369,277.851c0.8-7.4,4.9-14.4,10.8-19c-24.399-15.8-42.399-31.8-55.6-45.7c-2.3-2.4-4.4-4.7-6.4-7
		c-6.5-7.4-11.5-14.1-15.3-19.5c-7.6-15.9-3.399-30.8-0.7-46.7c0.4-2.5-1.5-4.1-3.399-4.3c-0.3-0.1-0.5-0.1-0.8-0.1
		c-1.101,0-2.101,0.5-2.801,1.6c-4.5,7.1-7.8,14.5-10.5,22.2c-1.3,3.7-2.399,7.5-3.399,11.3c-5.4,20.7-7.3,42.6-13.7,63.1l-1.2,3
		c-1.399,3.6-0.399,5.9,2.3,5.9c0.601,0,1.301-0.1,2.101-0.4l23-7.4l0.899-0.3c1.101-0.4,2.4-0.5,3.7-0.5
		c3.601,0,7.601,1.3,10.2,3.4c5.2,4.2,10.5,8.3,15.9,12.2C435.27,260.951,451.47,270.65,464.369,277.851z"/>
	<path d="M619.27,237.051c-7.2-21.5-9.101-44.6-14.7-66.4c-1.3-5.1-2.8-10-4.7-14.9c-2.399-6.4-5.399-12.6-9.2-18.6
		c-0.699-1.1-1.8-1.6-2.8-1.6c-0.3,0-0.5,0-0.8,0.1c-1.9,0.2-3.9,1.9-3.4,4.3c2.801,16.2,7,31.3-1.1,47.5
		c-3.9,5.5-9.1,12.1-15.7,19.5c-1.899,2.2-4,4.4-6.2,6.6c-14.1,14.6-33.6,31.5-59.8,48c-1.899,1.2-3.7,2.3-5.6,3.5
		c-0.3,0.1-0.5,0.3-0.7,0.4c-2.5,1.4-4.701,2.5-6.701,3.4c-0.3,0.1-0.7,0.3-1,0.4c-4.1,1.8-7.6,6.5-7.6,11.4v5.3v8.4v8.1v84.6
		c0,4.8,3.6,8.7,8,8.7h6.6c4.4,0,8-3.9,8-8.7v-92.2v-0.5c0-3.1,1.3-6.5,3.3-9.1c1.101-1.5,2.4-2.7,3.9-3.5
		c13.7-7.4,33-18.7,51.8-32.3c5.4-3.9,10.7-7.9,15.9-12.2c2.6-2.1,6.6-3.4,10.2-3.4c1.3,0,2.6,0.2,3.699,0.5l0.9,0.3l23,7.4
		c0.8,0.3,1.5,0.4,2.1,0.4c2.2,0,3.801-1.4,3.4-3.8C619.77,237.951,619.47,237.65,619.27,237.051z"/>
</g>
<g>
</g>
<g>
</g>
<g>
</g>
<g>
</g>
<g>
</g>
<g>
</g>
<g>
</g>
<g>
</g>
<g>
</g>
<g>
</g>
<g>
</g>
<g>
</g>
<g>
</g>
<g>
</g>
<g>
</g>
</svg>
