<?xml version="1.0" encoding="iso-8859-1"?>
<!-- Generator: Adobe Illustrator 16.0.0, SVG Export Plug-In . SVG Version: 6.00 Build 0)  -->
<!DOCTYPE svg PUBLIC "-//W3C//DTD SVG 1.1//EN" "http://www.w3.org/Graphics/SVG/1.1/DTD/svg11.dtd">
<svg version="1.1" id="Capa_1" xmlns="http://www.w3.org/2000/svg" xmlns:xlink="http://www.w3.org/1999/xlink" x="0px" y="0px"
	 width="966.493px" height="966.493px" viewBox="0 0 966.493 966.493" style="enable-background:new 0 0 966.493 966.493;"
	 xml:space="preserve">
<g>
	<g>
		<path d="M168.949,1.493c-8.284,0-15,6.716-15,15v681.354c-10.831,5.484-18.259,16.712-18.259,29.683v205.703
			c0,18.368,14.891,33.26,33.259,33.26c18.369,0,33.26-14.892,33.26-33.26V727.53c0-12.971-7.429-24.198-18.26-29.684V16.493
			C183.949,8.209,177.233,1.493,168.949,1.493z"/>
		<path d="M214.188,423.949c-0.002,5.612,4.546,10.139,10.157,10.315c198.767,2.094,397.534,181.84,596.302,183.934
			c5.611,0.177,10.156-4.392,10.156-9.999c0-137.982,0-275.964,0-413.945c0-5.613-4.549-10.138-10.156-10.316
			C621.879,181.845,423.111,2.098,224.345,0.005c-5.608-0.177-10.16,4.392-10.157,9.999
			C214.188,147.986,214.188,285.968,214.188,423.949z M239.921,34.239c0-4.978,4.186-8.712,9.35-8.179
			c93.121,9.551,186.244,54.836,279.366,99.318c5.166,2.467,9.354,8.5,9.352,13.479c0,61.245,0,122.49,0,183.735
			c85.91,36.887,171.822,72.05,257.732,76.799c5.162,0.531,9.352,4.873,9.35,9.855c0,58.24,0,116.479,0,174.718
			c0,4.978-4.189,8.713-9.35,8.179c-82.795-4.429-165.588-37.104-248.383-72.35c-5.166-2.452-9.346-8.488-9.35-13.466
			c0-61.245,0-122.49,0-183.735c-96.24-45.872-192.478-93.909-288.717-103.78c-5.162-0.533-9.354-4.874-9.35-9.855
			C239.921,150.718,239.921,92.479,239.921,34.239z"/>
	</g>
</g>
<g>
</g>
<g>
</g>
<g>
</g>
<g>
</g>
<g>
</g>
<g>
</g>
<g>
</g>
<g>
</g>
<g>
</g>
<g>
</g>
<g>
</g>
<g>
</g>
<g>
</g>
<g>
</g>
<g>
</g>
</svg>
