<?xml version="1.0" encoding="iso-8859-1"?>
<!-- Generator: Adobe Illustrator 16.0.0, SVG Export Plug-In . SVG Version: 6.00 Build 0)  -->
<!DOCTYPE svg PUBLIC "-//W3C//DTD SVG 1.1//EN" "http://www.w3.org/Graphics/SVG/1.1/DTD/svg11.dtd">
<svg version="1.1" id="Capa_1" xmlns="http://www.w3.org/2000/svg" xmlns:xlink="http://www.w3.org/1999/xlink" x="0px" y="0px"
	 width="966.801px" height="966.801px" viewBox="0 0 966.801 966.801" style="enable-background:new 0 0 966.801 966.801;"
	 xml:space="preserve">
<g>
	<g>
		<path d="M956.801,168.25H10c-5.5,0-10,4.5-10,10v610.3c0,5.5,4.5,10,10,10h946.801c5.5,0,10-4.5,10-10v-610.3
			C966.801,172.75,962.301,168.25,956.801,168.25z M431.8,731.75c0,8.3-6.7,15-15,15H66c-8.3,0-15-6.7-15-15v-496.7
			c0-8.3,6.7-15,15-15h350.9c8.3,0,15,6.7,15,15L431.8,731.75L431.8,731.75z M482.5,587.85c-19.3,0-19.3-30,0-30
			C501.801,557.85,501.801,587.85,482.5,587.85z M482.5,408.35c-19.3,0-19.3-30,0-30C501.801,378.351,501.801,408.35,482.5,408.35z
			 M913.801,731.75c0,8.3-6.701,15-15,15H548c-8.301,0-15-6.7-15-15v-496.7c0-8.3,6.699-15,15-15h350.9c8.299,0,15,6.7,15,15
			L913.801,731.75L913.801,731.75z"/>
		<path d="M81,716.75h320.9v-466.7H81V716.75z M320.1,673.35H162.8c-8.3,0-15-6.699-15-15c0-8.3,6.7-15,15-15h157.3
			c8.3,0,15,6.7,15,15C335.1,666.651,328.4,673.35,320.1,673.35z M348.1,328.351c8.3,0,15,6.7,15,15v278c0,8.301-6.7,15-15,15
			s-15-6.699-15-15v-278C333.1,335.15,339.8,328.351,348.1,328.351z M163.8,291.351h157.3c8.3,0,15,6.7,15,15c0,8.3-6.7,15-15,15
			H163.8c-8.3,0-15-6.7-15-15C148.8,298.05,155.5,291.351,163.8,291.351z M119.8,343.351c0-8.3,6.7-15,15-15c8.3,0,15,6.7,15,15v278
			c0,8.301-6.7,15-15,15c-8.3,0-15-6.699-15-15V343.351z"/>
		<path d="M563,716.75h320.9v-466.7H563V716.75z M817,340.351c0-8.3,6.699-15,15-15s15,6.7,15,15v106c0,8.301-6.699,15-15,15
			s-15-6.699-15-15V340.351z M817,519.85c0-8.3,6.699-15,15-15s15,6.7,15,15v106c0,8.301-6.699,15-15,15s-15-6.699-15-15V519.85z
			 M644.699,291.351H802c8.301,0,15,6.7,15,15c0,8.3-6.699,15-15,15H644.699c-8.299,0-15-6.7-15-15
			C629.699,298.05,636.4,291.351,644.699,291.351z M644.699,468.35H802c8.301,0,15,6.7,15,15c0,8.301-6.699,15-15,15H644.699
			c-8.299,0-15-6.699-15-15C629.699,475.05,636.4,468.35,644.699,468.35z M644.699,645.35H802c8.301,0,15,6.7,15,15
			c0,8.301-6.699,15-15,15H644.699c-8.299,0-15-6.699-15-15C629.699,652.05,636.4,645.35,644.699,645.35z"/>
	</g>
</g>
<g>
</g>
<g>
</g>
<g>
</g>
<g>
</g>
<g>
</g>
<g>
</g>
<g>
</g>
<g>
</g>
<g>
</g>
<g>
</g>
<g>
</g>
<g>
</g>
<g>
</g>
<g>
</g>
<g>
</g>
</svg>
