<?xml version="1.0" encoding="iso-8859-1"?>
<!-- Generator: Adobe Illustrator 16.0.0, SVG Export Plug-In . SVG Version: 6.00 Build 0)  -->
<!DOCTYPE svg PUBLIC "-//W3C//DTD SVG 1.1//EN" "http://www.w3.org/Graphics/SVG/1.1/DTD/svg11.dtd">
<svg version="1.1" id="Capa_1" xmlns="http://www.w3.org/2000/svg" xmlns:xlink="http://www.w3.org/1999/xlink" x="0px" y="0px"
	 width="856.3px" height="856.3px" viewBox="0 0 856.3 856.3" style="enable-background:new 0 0 856.3 856.3;" xml:space="preserve"
	>
<g>
	<g>
		<path d="M638.55,0.1h-21V0h-19h-19v0.1l-2.2,7.4c-9,32.4-30.5,54.9-57.5,69.4c-9.4,5.1-19.5,9.2-30,12.3c-20.2,6.2-41.8,9-62.5,9
			c-21.4,0-43.7-3-64.5-9.6c-10.5-3.3-20.601-7.6-30-12.8c-26.101-14.5-46.8-36.7-55.601-68.3l-2.199-7.4V0h-19h-19v0.1h-19
			c-90.4,0-163.7,73.3-163.7,163.7v268.6c0,5.7,4.6,10.301,10.3,10.301l107.9,0.1V234.6h23.3V849c0.1,5.3,5.2,7.3,9.8,7.3h445
			c5.7,0,10.3-4.6,10.3-10.3l0.5-611.4h23.3l0,0h0.101V443l106.8-0.2c5.7,0,10.3-4.6,10.3-10.3V163.8
			C802.249,73.4,728.949,0.1,638.55,0.1z M287.149,826.2h-30V52.3c7.9,13.3,17.9,25.3,30,35.8V826.2z M362.949,826.2h-30V116.4
			c10.101,4.3,20.101,7.7,30,10.3V826.2z M443.749,826.2h-30.6V134.4c5,0.3,9.8,0.4,14.2,0.4h0.1h0.101c5,0,10.399-0.2,16.199-0.5
			V826.2L443.749,826.2z M519.949,826.2h-30v-699c9.8-2.5,19.9-5.7,30-9.9V826.2z M599.749,826.2h-30V86.3
			c12.2-11,22.301-23.5,30-37.5V826.2z"/>
		<path d="M341.649,0.1C341.649,0.1,341.55,0.1,341.649,0.1l-11-0.1h-19.5v0.1c0.5,1.5,1.1,3,1.6,4.5
			c6.5,16.7,17.2,29.2,30.301,38.3c6.199,4.3,12.899,7.9,19.899,10.9c20.4,8.5,43.5,11.6,64.5,11.6c20.3,0,42.601-2.9,62.5-10.8
			c1.7-0.7,3.3-1.4,5-2.1c20.5-9.3,38-24.3,47.2-47.8c0.6-1.5,1.1-3,1.6-4.5V0.1h-19.5h-9.8v0.1c-14.8,24.7-43.8,40.7-86.2,40.7
			C384.649,40.8,356.05,24.8,341.649,0.1z"/>
	</g>
</g>
<g>
</g>
<g>
</g>
<g>
</g>
<g>
</g>
<g>
</g>
<g>
</g>
<g>
</g>
<g>
</g>
<g>
</g>
<g>
</g>
<g>
</g>
<g>
</g>
<g>
</g>
<g>
</g>
<g>
</g>
</svg>
