<?xml version="1.0" encoding="iso-8859-1"?>
<!-- Generator: Adobe Illustrator 16.0.0, SVG Export Plug-In . SVG Version: 6.00 Build 0)  -->
<!DOCTYPE svg PUBLIC "-//W3C//DTD SVG 1.1//EN" "http://www.w3.org/Graphics/SVG/1.1/DTD/svg11.dtd">
<svg version="1.1" id="Capa_1" xmlns="http://www.w3.org/2000/svg" xmlns:xlink="http://www.w3.org/1999/xlink" x="0px" y="0px"
	 width="980px" height="980px" viewBox="0 0 980 980" style="enable-background:new 0 0 980 980;" xml:space="preserve">
<g>
	<g>
		<path d="M16.3,895c8.3,0,15-6.7,15-15V423.1H647.9c8.3,0,15-6.699,15-15V15c0-8.3-6.7-15-15-15H16.3C8,0,1.3,6.7,1.3,15v393.1V880
			C1.3,888.3,8,895,16.3,895z M31.3,211.5h300.8V393H31.3V211.5z M632.9,211.5H332.1V30H632.9V211.5L632.9,211.5z"/>
		<path d="M317.1,571.9V965c0,8.3,6.7,15,15,15H963.7c8.3,0,15-6.7,15-15v-8.1v-385v-480c0-8.3-6.7-15-15-15s-15,6.7-15,15v465
			H332.1C323.8,556.9,317.1,563.7,317.1,571.9z M948.6,768.5H647.9V950H347.1V768.5H647.9V586.9h300.8L948.6,768.5L948.6,768.5z"/>
	</g>
</g>
<g>
</g>
<g>
</g>
<g>
</g>
<g>
</g>
<g>
</g>
<g>
</g>
<g>
</g>
<g>
</g>
<g>
</g>
<g>
</g>
<g>
</g>
<g>
</g>
<g>
</g>
<g>
</g>
<g>
</g>
</svg>
