<?xml version="1.0" encoding="iso-8859-1"?>
<!-- Generator: Adobe Illustrator 16.0.0, SVG Export Plug-In . SVG Version: 6.00 Build 0)  -->
<!DOCTYPE svg PUBLIC "-//W3C//DTD SVG 1.1//EN" "http://www.w3.org/Graphics/SVG/1.1/DTD/svg11.dtd">
<svg version="1.1" id="Capa_1" xmlns="http://www.w3.org/2000/svg" xmlns:xlink="http://www.w3.org/1999/xlink" x="0px" y="0px"
	 width="989.558px" height="989.557px" viewBox="0 0 989.558 989.557" style="enable-background:new 0 0 989.558 989.557;"
	 xml:space="preserve">
<g>
	<g>
		<path d="M76.491,62.494l-75.2,186.5c-2.9,7.301-1.1,13,7.3,16.4l68.9,29.3c5.8,2.4,12.7,9.101,15.3,14.9
			c10.4,22.899,20.9,45.7,31.2,68.6c42.5,94.101,84.6,188.5,128.1,282.2c49.601,106.5,93.5,203.2,211.601,250.8
			c136.2,54.9,287.6,11.7,375.899-96.3c4.2,2.5,8.7,4.7,13.301,6.5c16.6,6.7,34.699,8.8,52.3,6.101l0,0
			c34.5-5.301,64-28.7,77.1-61.101c9.9-24.6,9.7-51.6-0.7-76.1c-10.399-24.4-29.699-43.4-54.3-53.3c-4.8-1.9-9.6-3.4-14.6-4.601
			c10.6-138.5-68.4-273.9-204.101-328.6l-96.399-38.9l-14.8,36.6c-2.4,5.9-7,8.301-12.301,5.5l-88.1-56.5
			c-4.4-2.8-6.1-9.899-3.8-15.8l6.2-15.399L92.891,55.494C86.491,52.794,79.091,55.994,76.491,62.494z M889.791,729.894
			c8.5-21.2,14.7-42.8,18.601-64.399c2.199,0.6,4.3,1.399,6.399,2.199c16.4,6.601,29.3,19.2,36.2,35.5
			c6.9,16.301,7.1,34.301,0.5,50.7c-8.7,21.601-28.4,37.2-51.4,40.7c-11.699,1.8-23.8,0.4-34.8-4.1c-2-0.801-4-1.7-5.899-2.7
			C871.191,769.995,881.491,750.594,889.791,729.894z M382.892,524.594c14.5-36,38.3-67.6,68.8-91.3c29.6-23,64.8-38.2,101.8-43.9
			c39-6,79-1.399,115.7,13.4c54.5,22,97.2,63.899,120.2,117.899c23,54.101,23.5,113.9,1.6,168.301c-14.5,36-38.3,67.6-68.8,91.3
			c-29.601,23-64.8,38.2-101.8,43.899l0,0c-39,6-79,1.4-115.7-13.399c-54.5-22-97.2-63.9-120.2-117.9
			S360.892,579.094,382.892,524.594z"/>
		<path d="M747.291,579.094c21.5-16.4,38.101-38.2,48.101-63.1c9.5-23.7,12.899-49.7,9.6-75.101c-3.3-26.1-13.6-51-29.6-72
			c-50.2-65.7-144.5-78.3-210.2-28.1c-21.5,16.399-38.101,38.199-48.101,63.1c-9.5,23.7-12.899,49.7-9.6,75.101
			c3.3,26.1,13.6,51,29.6,72c24.301,31.8,59.601,52.3,99.301,57.6C676.091,613.894,715.491,603.394,747.291,579.094z"/>
	</g>
</g>
<g>
</g>
<g>
</g>
<g>
</g>
<g>
</g>
<g>
</g>
<g>
</g>
<g>
</g>
<g>
</g>
<g>
</g>
<g>
</g>
<g>
</g>
<g>
</g>
<g>
</g>
<g>
</g>
<g>
</g>
</svg>
